<?xml version="1.0" encoding="UTF-8" standalone="no"?>
<svg
   xmlns:dc="http://purl.org/dc/elements/1.1/"
   xmlns:cc="http://creativecommons.org/ns#"
   xmlns:rdf="http://www.w3.org/1999/02/22-rdf-syntax-ns#"
   xmlns:svg="http://www.w3.org/2000/svg"
   xmlns="http://www.w3.org/2000/svg"
   xmlns:sodipodi="http://sodipodi.sourceforge.net/DTD/sodipodi-0.dtd"
   xmlns:inkscape="http://www.inkscape.org/namespaces/inkscape"
   inkscape:version="1.0 (4035a4f, 2020-05-01)"
   sodipodi:docname="BSN Logo v2.svg"
   viewBox="0 0 616.46667 554.66669"
   height="554.66669"
   width="616.46667"
   xml:space="preserve"
   id="svg28"
   version="1.1"><metadata
     id="metadata34"><rdf:RDF><cc:Work
         rdf:about=""><dc:format>image/svg+xml</dc:format><dc:type
           rdf:resource="http://purl.org/dc/dcmitype/StillImage" /><dc:title></dc:title></cc:Work></rdf:RDF></metadata><defs
     id="defs32" /><sodipodi:namedview
     inkscape:current-layer="g36"
     inkscape:window-maximized="1"
     inkscape:window-y="25"
     inkscape:window-x="1440"
     inkscape:cy="277.33334"
     inkscape:cx="308.23334"
     inkscape:zoom="1.4765624"
     showgrid="false"
     id="namedview30"
     inkscape:window-height="1027"
     inkscape:window-width="1920"
     inkscape:pageshadow="2"
     inkscape:pageopacity="0"
     guidetolerance="10"
     gridtolerance="10"
     objecttolerance="10"
     borderopacity="1"
     bordercolor="#666666"
     pagecolor="#ffffff" /><g
     transform="matrix(1.3333333,0,0,-1.3333333,0,554.66667)"
     inkscape:label="ink_ext_XXXXXX"
     inkscape:groupmode="layer"
     id="g36"><g
       transform="scale(0.1)"
       id="g38"><path
         id="path40"
         style="fill:#1e3252;fill-opacity:1;fill-rule:nonzero;stroke:none"
         d="m 501.184,2128.37 58.769,-2.91 c 3.063,-0.15 5.426,0.39 7.09,1.62 1.664,1.24 2.555,2.98 2.668,5.24 l 1.035,20.97 c 0.508,10.27 -1.894,18.48 -7.215,24.62 -5.32,6.14 -13.402,9.48 -24.258,10.01 -11.359,0.56 -20.199,-2.14 -26.515,-8.11 -6.32,-5.96 -9.774,-14.92 -10.363,-26.86 z m -10.161,0.5 0.899,18.24 c 0.621,12.53 -1.555,21.61 -6.524,27.26 -4.964,5.65 -13.488,8.77 -25.558,9.37 -10.461,0.52 -18.047,-1.7 -22.735,-6.65 -4.691,-4.95 -7.39,-14.68 -8.109,-29.17 -0.34,-6.92 0.059,-11.34 1.203,-13.25 1.145,-1.92 3.352,-2.96 6.625,-3.12 z m -75.941,-54.29 4.836,97.99 c 0.754,15.22 4.969,27.02 12.637,35.41 7.672,8.37 16.894,12.3 27.664,11.77 9.457,-0.47 17.293,-4.34 23.5,-11.62 6.207,-7.28 10.781,-17.96 13.73,-32.05 3.973,18.27 9.688,31.11 17.137,38.52 7.453,7.4 16.5,10.85 27.141,10.32 9.402,-0.46 17.359,-3.63 23.863,-9.5 4.613,-4.17 8.539,-11.25 11.769,-21.22 3.239,-9.98 4.524,-21.63 3.864,-34.96 l -4.575,-92.64 -10.16,0.5 0.735,14.86 c 0.125,2.54 -0.547,4.52 -2.012,5.9 -2.02,1.85 -4.492,2.85 -7.406,3 l -125.082,6.17 c -1.891,0.1 -3.461,-0.65 -4.707,-2.23 -1.246,-1.58 -1.965,-4.3 -2.153,-8.16 l -0.625,-12.56 -10.156,0.5" /><path
         id="path42"
         style="fill:#1e3252;fill-opacity:1;fill-rule:nonzero;stroke:none"
         d="m 508.605,2320.11 2.094,13.51 c 1.856,11.96 0.266,21.88 -4.789,29.74 -3.875,5.92 -11.367,9.74 -22.461,11.46 -10.23,1.59 -18.105,0.19 -23.617,-4.19 -5.512,-4.39 -9.25,-12.88 -11.207,-25.5 -1.051,-6.77 -0.973,-11.13 0.234,-13.09 1.211,-1.96 4.375,-3.34 9.489,-4.13 z m -81.312,-45.38 12.949,83.44 c 2.106,13.55 5.567,24.32 10.379,32.32 4.82,7.99 10.559,13.61 17.219,16.86 6.66,3.24 13.668,4.3 21.012,3.16 11.738,-1.83 20.421,-8.56 26.062,-20.21 4.301,-8.86 5.992,-21.74 5.063,-38.64 2.668,8.14 5.851,14.22 9.546,18.25 3.704,4.04 8.782,7.32 15.239,9.86 8.488,3.34 18.394,5.61 29.722,6.81 7.27,0.72 11.914,1.63 13.926,2.72 2.016,1.09 3.156,2.49 3.422,4.23 0.738,4.75 -5.121,8.58 -17.586,11.47 l 1.473,9.51 c 13.293,-2.8 22.433,-7.28 27.414,-13.44 4.984,-6.16 6.734,-14.03 5.242,-23.62 -1.059,-6.84 -3.32,-12.12 -6.77,-15.82 -3.453,-3.71 -8.046,-6.23 -13.789,-7.55 -3.296,-0.82 -10.855,-1.48 -22.671,-2.01 -13.813,-0.59 -23.196,-1.59 -28.137,-3 -4.942,-1.41 -8.793,-3.63 -11.551,-6.67 -2.758,-3.04 -4.523,-7.05 -5.293,-12.02 l -1.832,-11.78 58.906,-9.14 c 2.594,-0.4 4.692,0.04 6.293,1.34 2.141,1.89 3.43,4.27 3.879,7.15 l 2.246,14.48 10.055,-1.56 -12.566,-80.95 -10.051,1.56 1.949,12.54 c 0.5,3.24 0.031,5.82 -1.402,7.74 -1.438,1.92 -3.668,3.12 -6.696,3.59 l -120.507,18.7 c -3.317,0.52 -5.864,0.14 -7.649,-1.14 -1.785,-1.27 -2.894,-3.31 -3.328,-6.12 l -2.113,-13.62 -10.055,1.56" /><path
         id="path44"
         style="fill:#1e3252;fill-opacity:1;fill-rule:nonzero;stroke:none"
         d="m 512.602,2525.47 52.972,-40.81 13.18,49.87 z m -35.106,27.46 155.82,21.58 c 4.395,0.65 7.559,1.77 9.489,3.38 1.933,1.6 3.324,4.03 4.183,7.27 l 1.512,5.71 9.832,-2.6 -19.383,-73.38 -9.836,2.59 1.817,6.88 c 1.429,5.43 1.82,9.32 1.164,11.68 -0.66,2.36 -1.973,3.81 -3.953,4.33 -1.547,0.4 -3.457,0.46 -5.727,0.15 l -32.164,-4.4 -15.461,-58.56 11.746,-9.05 c 4.883,-3.79 8.668,-6.03 11.344,-6.74 4.586,-1.21 8.75,-0.5 12.5,2.14 3.75,2.64 6.402,6.88 7.949,12.75 l 1.313,4.98 9.839,-2.6 -15.699,-59.43 -9.84,2.59 0.899,3.4 c 1.012,3.82 0.699,7.5 -0.93,11.03 -2.301,5 -5.797,9.32 -10.484,12.99 l -119.063,91.44 3.133,11.87" /><path
         id="path46"
         style="fill:#1e3252;fill-opacity:1;fill-rule:nonzero;stroke:none"
         d="m 680.945,2677.81 c 3.555,9.33 4.356,18.51 2.403,27.52 -1.957,9.01 -6.399,16.67 -13.332,22.98 -6.926,6.31 -18.95,12.72 -36.067,19.24 -18.004,6.86 -32.515,10.22 -43.535,10.08 -11.023,-0.13 -19.797,-2.66 -26.32,-7.59 -6.524,-4.93 -12.172,-13.66 -16.949,-26.19 -2.622,-6.89 -3.68,-11.42 -3.184,-13.6 0.5,-2.18 2.281,-3.85 5.352,-5.02 l 114.464,-43.59 c 3.414,-1.3 6.133,-1.54 8.164,-0.71 2.032,0.82 3.633,2.77 4.801,5.84 z m -169.965,-20.36 30.981,81.36 c 5.633,14.79 13.711,26.57 24.238,35.36 10.524,8.79 22.781,14.15 36.781,16.07 14,1.93 28.254,0.12 42.77,-5.4 15.059,-5.74 27.055,-13.62 35.992,-23.66 8.934,-10.03 14.516,-22.07 16.738,-36.1 2.227,-14.03 0.821,-27.66 -4.214,-40.88 l -32.114,-84.32 -9.507,3.61 4.789,12.58 c 1.168,3.06 1.214,5.7 0.14,7.9 -1.074,2.2 -3.105,3.87 -6.105,5.02 l -113.864,43.37 c -3.066,1.16 -5.609,1.19 -7.632,0.09 -2.016,-1.1 -3.77,-3.6 -5.25,-7.48 l -4.243,-11.14 -9.5,3.62" /><path
         id="path48"
         style="fill:#1e3252;fill-opacity:1;fill-rule:nonzero;stroke:none"
         d="m 644.773,2937.19 -8.363,15.56 3.469,6.94 50.43,-24.12 -4.403,-8.8 c -16.633,2.61 -30.621,1.49 -41.968,-3.35 -11.348,-4.84 -19.563,-12.35 -24.653,-22.52 -4.336,-8.68 -5.504,-16.92 -3.508,-24.73 2.004,-7.8 6.289,-13.35 12.868,-16.64 3.91,-1.95 8.031,-2.67 12.363,-2.15 4.332,0.52 8.851,2.6 13.555,6.23 4.707,3.63 11.292,10.82 19.757,21.57 9.93,12.54 17.407,20.91 22.434,25.09 8.027,6.61 16.223,10.47 24.57,11.61 8.356,1.14 17,-0.53 25.93,-5 13.371,-6.68 21.726,-16.61 25.086,-29.78 4.039,-15.88 1.969,-32.01 -6.215,-48.38 -7.535,-15.06 -19.664,-26.2 -36.391,-33.41 l 8.555,-18.58 -3.617,-7.24 -53.609,26.81 4.304,8.6 c 34.856,-6.76 58.809,2.92 71.871,29.05 5.344,10.68 7.035,20.22 5.082,28.6 -1.957,8.39 -6.613,14.43 -13.976,18.11 -5.153,2.57 -10.125,3.43 -14.91,2.57 -4.789,-0.86 -9.629,-3.49 -14.516,-7.89 -2.668,-2.41 -8.238,-8.9 -16.707,-19.48 -11.5,-14.2 -20.82,-23.77 -27.981,-28.71 -7.152,-4.94 -14.246,-7.64 -21.289,-8.11 -7.035,-0.48 -14.468,1.24 -22.289,5.15 -13.164,6.58 -21.695,16.37 -25.586,29.36 -3.886,13 -2.121,26.93 5.317,41.8 7.144,14.28 18.605,24.89 34.39,31.84" /><path
         id="path50"
         style="fill:#1e3252;fill-opacity:1;fill-rule:nonzero;stroke:none"
         d="m 667.32,3007.46 40.145,63.26 8.586,-5.45 -5.918,-9.33 c -1.68,-2.65 -2.34,-4.99 -1.996,-7.02 0.351,-2.04 1.508,-3.68 3.48,-4.93 l 44.793,-28.42 33.047,52.09 -42.48,26.95 c -3.262,2.07 -5.985,2.82 -8.157,2.26 -2.172,-0.56 -4.293,-2.48 -6.363,-5.74 l -5.039,-7.94 -8.586,5.45 40.199,63.35 8.59,-5.45 -5.398,-8.5 c -2.071,-3.26 -2.918,-5.96 -2.543,-8.1 0.371,-2.13 1.851,-4.02 4.433,-5.66 l 103.16,-65.45 c 3.02,-1.92 5.661,-2.62 7.926,-2.11 2.258,0.5 4.192,2.02 5.793,4.54 l 6.035,9.51 8.59,-5.45 -40.195,-63.35 -8.59,5.45 6.094,9.6 c 1.679,2.65 2.297,4.92 1.851,6.8 -0.449,1.88 -2.054,3.7 -4.828,5.45 l -49.133,31.18 -33.05,-52.09 49.136,-31.17 c 2.645,-1.68 4.938,-2.36 6.871,-2.03 1.938,0.33 3.504,1.44 4.719,3.35 l 6.973,10.99 8.59,-5.44 -40.141,-63.27 -8.59,5.45 6.446,10.16 c 1.484,2.34 1.968,4.43 1.449,6.27 -0.516,1.83 -2.129,3.62 -4.836,5.34 l -102.977,65.33 c -3.195,2.03 -5.91,2.76 -8.133,2.18 -2.222,-0.57 -4.332,-2.43 -6.324,-5.57 l -5.039,-7.94 -8.59,5.45" /><path
         id="path52"
         style="fill:#1e3252;fill-opacity:1;fill-rule:nonzero;stroke:none"
         d="m 853.527,3214.3 32.086,-58.67 32.125,40.37 z m -21.093,39.27 151.339,-42.93 c 4.286,-1.17 7.637,-1.41 10.047,-0.72 2.418,0.69 4.668,2.35 6.76,4.97 l 3.68,4.63 7.95,-6.33 -47.261,-59.4 -7.961,6.34 4.426,5.56 c 3.496,4.39 5.418,7.8 5.766,10.23 0.347,2.42 -0.278,4.27 -1.875,5.55 -1.254,0.99 -2.985,1.81 -5.18,2.44 l -31.223,8.91 -37.714,-47.39 7.121,-13.02 c 2.949,-5.43 5.507,-9 7.675,-10.73 3.707,-2.95 7.809,-3.97 12.301,-3.07 4.496,0.91 8.633,3.73 12.406,8.48 l 3.207,4.03 7.961,-6.34 -38.281,-48.09 -7.961,6.33 2.188,2.75 c 2.461,3.09 3.656,6.58 3.586,10.47 -0.098,5.5 -1.555,10.87 -4.375,16.11 l -72.227,131.61 7.645,9.61" /><path
         id="path54"
         style="fill:#1e3252;fill-opacity:1;fill-rule:nonzero;stroke:none"
         d="m 893.707,3325.61 46.035,46 7.188,-7.2 -4.328,-4.32 c -2.735,-2.74 -4.258,-4.9 -4.567,-6.5 -0.312,-1.6 0.18,-3.05 1.465,-4.34 0.926,-0.92 2.168,-1.8 3.711,-2.62 l 90.279,-44.78 -38.967,78.47 -13.421,6.64 c -2.786,1.34 -5.207,1.76 -7.266,1.25 -2.731,-0.67 -5.488,-2.4 -8.266,-5.17 l -5.562,-5.56 -7.192,7.2 53.074,53.03 7.19,-7.19 -4.88,-4.89 c -3.57,-3.57 -5.58,-6.4 -6.02,-8.49 -0.44,-2.09 0.13,-3.93 1.73,-5.53 0.67,-0.68 1.52,-1.27 2.55,-1.78 l 90.09,-44.97 -40.46,78.48 c -1.19,2.42 -2.63,4.48 -4.33,6.18 -3.14,3.15 -6.41,4.73 -9.78,4.77 -3.38,0.02 -6.44,-1.33 -9.17,-4.06 l -3.25,-3.25 -7.19,7.2 37.29,37.26 7.19,-7.19 c -4.02,-4.23 -6.34,-8.48 -6.96,-12.77 -0.63,-4.28 0.3,-8.79 2.77,-13.53 l 66.41,-130.01 -9.49,-9.49 -107.13,53.24 53.2,-107.13 -9.42,-9.42 -138.449,68.54 c -2.89,1.45 -5.351,2 -7.394,1.66 -2.035,-0.33 -3.985,-1.43 -5.844,-3.29 l -3.648,-3.64 -7.188,7.2" /><path
         id="path56"
         style="fill:#1e3252;fill-opacity:1;fill-rule:nonzero;stroke:none"
         d="m 1261.27,3645.31 42.86,26.15 132.55,-49.03 -39.25,64.32 c -3.87,6.35 -8.78,10.34 -14.73,11.96 -5.94,1.63 -12.38,0.63 -19.31,-3 l -5.3,8.68 50.42,30.77 5.3,-8.69 c -6.58,-5.04 -10.34,-10.21 -11.28,-15.53 -0.94,-5.31 0.66,-11.36 4.8,-18.15 l 65.74,-107.74 -10.79,-6.59 -151.57,57.02 46.04,-75.45 c 5.27,-8.65 11.09,-13.73 17.45,-15.27 6.36,-1.53 12.47,-0.52 18.32,3.05 l 2.34,1.42 5.29,-8.68 -55.73,-34.01 -5.3,8.68 3.83,2.34 c 5.47,3.34 8.75,8.33 9.83,14.96 1.08,6.63 -0.47,13.36 -4.64,20.2 l -54.39,89.14 c -7.54,2.97 -14.54,2.48 -21.01,-1.47 l -6.17,-3.76 -5.3,8.68" /><path
         id="path58"
         style="fill:#1e3252;fill-opacity:1;fill-rule:nonzero;stroke:none"
         d="m 1520.84,3782.77 c -7.86,-3.68 -13.66,-9.04 -17.41,-16.07 -3.76,-7.02 -5.08,-16.16 -3.96,-27.38 1.11,-11.23 5.59,-25.22 13.44,-41.98 8.26,-17.62 16.08,-30.22 23.46,-37.82 7.39,-7.61 15.11,-12.18 23.16,-13.72 8.05,-1.54 16.07,-0.44 24.06,3.31 11.81,5.53 18.88,15.02 21.2,28.46 2.33,13.44 -2.39,32.69 -14.14,57.77 -8.22,17.55 -15.92,30.02 -23.08,37.4 -7.16,7.39 -14.76,11.83 -22.8,13.34 -8.03,1.5 -16.01,0.4 -23.93,-3.31 z m -5.05,9.23 c 13.8,6.46 28.09,9.09 42.86,7.89 14.78,-1.21 28.12,-6.04 40.02,-14.51 11.89,-8.46 21.23,-19.92 28,-34.37 10.3,-21.98 11.7,-43.65 4.2,-65.03 -7.5,-21.38 -21.88,-37.05 -43.14,-47.01 -14.13,-6.62 -28.35,-9.22 -42.66,-7.8 -14.32,1.42 -27.36,6.28 -39.13,14.56 -11.78,8.28 -21.18,19.91 -28.19,34.9 -10.42,22.23 -11.92,43.9 -4.5,65 7.43,21.1 21.61,36.56 42.54,46.37" /><path
         id="path60"
         style="fill:#1e3252;fill-opacity:1;fill-rule:nonzero;stroke:none"
         d="m 1634.13,3839.74 133.57,46.47 23.61,-56.87 -9.4,-3.27 c -6.52,11.63 -12.74,20.31 -18.68,26.04 -5.92,5.74 -11.66,9.28 -17.19,10.64 -5.52,1.36 -10.97,1.11 -16.35,-0.77 -3.1,-1.07 -5.15,-2.5 -6.15,-4.28 -1,-1.77 -1.09,-3.87 -0.25,-6.28 l 41.12,-118.17 c 0.79,-2.28 2.14,-3.89 4.05,-4.85 1.92,-0.95 3.88,-1.08 5.87,-0.39 l 17.36,6.04 3.34,-9.61 -81.71,-28.43 -3.34,9.62 16.53,5.74 c 2.47,0.86 4.19,2.25 5.15,4.17 0.95,1.91 1.02,4.04 0.21,6.38 l -40.9,117.56 c -0.96,2.75 -2.41,4.53 -4.34,5.32 -1.94,0.79 -4.49,0.64 -7.66,-0.46 -17.56,-6.11 -23.85,-26.32 -18.86,-60.64 l -9.08,-3.16 -16.9,59.2" /><path
         id="path62"
         style="fill:#1e3252;fill-opacity:1;fill-rule:nonzero;stroke:none"
         d="m 1877.44,3876.9 -10.79,-66 50.16,12.06 z m 7.53,43.93 92.91,-126.94 c 2.66,-3.55 5.15,-5.81 7.48,-6.75 2.33,-0.94 5.13,-1.01 8.39,-0.23 l 5.74,1.38 2.38,-9.88 -73.8,-17.76 -2.37,9.89 6.9,1.67 c 5.46,1.31 9.08,2.81 10.84,4.52 1.77,1.7 2.41,3.54 1.94,5.52 -0.38,1.56 -1.24,3.27 -2.58,5.12 l -19.14,26.22 -58.88,-14.16 -2.4,-14.64 c -1.01,-6.09 -1.2,-10.49 -0.55,-13.18 1.11,-4.61 3.71,-7.94 7.82,-9.99 4.09,-2.05 9.09,-2.37 14.99,-0.95 l 5.01,1.21 2.37,-9.9 -59.76,-14.37 -2.38,9.89 3.41,0.82 c 3.85,0.92 6.93,2.94 9.27,6.06 3.31,4.39 5.46,9.52 6.46,15.38 l 24.01,148.2 11.94,2.87" /><path
         id="path64"
         style="fill:#1e3252;fill-opacity:1;fill-rule:nonzero;stroke:none"
         d="m 2063.88,3876.23 13.56,1.79 c 12,1.6 21.06,5.93 27.18,12.99 4.58,5.39 6.13,13.65 4.65,24.78 -1.36,10.27 -4.92,17.42 -10.68,21.48 -5.76,4.05 -14.96,5.24 -27.61,3.56 -6.8,-0.9 -10.96,-2.21 -12.5,-3.92 -1.54,-1.71 -1.97,-5.14 -1.29,-10.27 z m -66.47,65.21 83.71,11.11 c 13.59,1.8 24.9,1.52 33.93,-0.85 9.03,-2.36 16.04,-6.28 21.03,-11.75 5,-5.49 7.98,-11.91 8.96,-19.27 1.56,-11.78 -2.45,-22.01 -12.03,-30.71 -7.29,-6.63 -19.17,-11.88 -35.65,-15.76 8.56,-0.26 15.3,-1.6 20.21,-4.01 4.91,-2.4 9.49,-6.35 13.75,-11.83 5.6,-7.21 10.57,-16.07 14.92,-26.6 2.74,-6.77 4.92,-10.97 6.53,-12.59 1.62,-1.63 3.29,-2.33 5.03,-2.1 4.77,0.64 6.78,7.34 6.04,20.12 l 9.54,1.26 c 1.07,-13.54 -0.66,-23.57 -5.16,-30.09 -4.51,-6.52 -11.57,-10.41 -21.18,-11.69 -6.87,-0.91 -12.56,-0.23 -17.09,2.03 -4.54,2.27 -8.24,5.97 -11.13,11.11 -1.71,2.93 -4.49,9.99 -8.33,21.18 -4.46,13.09 -8.06,21.8 -10.8,26.14 -2.75,4.35 -5.97,7.41 -9.67,9.2 -3.69,1.79 -8.04,2.36 -13.02,1.7 l -11.82,-1.57 7.84,-59.09 c 0.35,-2.61 1.37,-4.49 3.07,-5.67 2.41,-1.51 5.06,-2.08 7.95,-1.7 l 14.53,1.93 1.34,-10.08 -81.21,-10.78 -1.34,10.08 12.58,1.68 c 3.25,0.43 5.59,1.6 7.03,3.52 1.44,1.92 1.95,4.39 1.55,7.43 l -16.04,120.89 c -0.44,3.33 -1.53,5.67 -3.25,7.02 -1.72,1.35 -4,1.84 -6.82,1.47 l -13.66,-1.81 -1.34,10.08" /><path
         id="path66"
         style="fill:#1e3252;fill-opacity:1;fill-rule:nonzero;stroke:none"
         d="m 2186.21,3964.93 80.46,2.5 0.31,-10.17 -11.11,-0.34 c -3.93,-0.13 -6.64,-0.7 -8.13,-1.74 -1.5,-1.03 -2.22,-2.34 -2.18,-3.95 0.06,-1.82 0.78,-3.87 2.17,-6.17 l 35.5,-56.95 22.16,47.8 c 1.85,3.92 2.72,7.53 2.62,10.8 -0.11,3.65 -1.48,6.49 -4.11,8.53 -2.63,2.03 -6.54,2.97 -11.74,2.8 l -4.95,-0.15 -0.31,10.16 62.53,1.95 0.31,-10.17 c -7.21,-0.37 -12.96,-1.99 -17.25,-4.86 -4.28,-2.86 -7.86,-7.37 -10.73,-13.52 l -30.48,-65.18 1.58,-50.83 c 0.09,-2.99 0.98,-5.19 2.66,-6.6 1.69,-1.4 4.28,-2.05 7.78,-1.94 l 16.73,0.52 0.31,-10.17 -88.55,-2.75 -0.31,10.17 16.61,0.51 c 3.79,0.12 6.43,0.92 7.92,2.39 1.48,1.46 2.18,3.73 2.08,6.79 l -1.4,45.15 -45.84,73.53 c -2.92,4.73 -5.95,7.92 -9.1,9.57 -3.15,1.65 -7.06,2.4 -11.73,2.26 l -3.49,-0.11 -0.32,10.17" /><path
         id="path68"
         style="fill:#1e3252;fill-opacity:1;fill-rule:nonzero;stroke:none"
         d="m 2704.53,3919.06 12.58,12.4 7.64,-1.39 -8.99,-55.17 -9.69,1.75 c -2.17,16.7 -7.16,29.81 -14.99,39.34 -7.84,9.53 -17.35,15.31 -28.54,17.34 -9.54,1.73 -17.79,0.54 -24.71,-3.57 -6.93,-4.11 -11.06,-9.79 -12.36,-17.02 -0.78,-4.31 -0.32,-8.46 1.4,-12.47 1.71,-4.01 4.97,-7.77 9.79,-11.26 4.8,-3.51 13.55,-7.81 26.25,-12.91 14.82,-6.01 24.95,-10.84 30.38,-14.49 8.58,-5.85 14.6,-12.63 18.04,-20.32 3.43,-7.7 4.25,-16.46 2.48,-26.29 -2.67,-14.71 -9.85,-25.52 -21.55,-32.44 -14.11,-8.34 -30.16,-10.87 -48.17,-7.61 -16.57,3 -30.67,11.51 -42.29,25.55 l -15.43,-13.44 -7.96,1.44 10.67,58.98 9.47,-1.71 c 3.3,-35.35 19.32,-55.63 48.06,-60.83 11.75,-2.13 21.38,-1.08 28.88,3.15 7.51,4.24 11.99,10.4 13.45,18.5 1.03,5.67 0.45,10.68 -1.72,15.04 -2.16,4.34 -6.05,8.25 -11.64,11.71 -3.06,1.89 -10.87,5.41 -23.39,10.56 -16.86,7.06 -28.66,13.32 -35.41,18.8 -6.74,5.48 -11.33,11.53 -13.76,18.16 -2.44,6.62 -2.88,14.23 -1.31,22.84 2.62,14.48 9.62,25.41 20.99,32.8 11.38,7.38 25.26,9.59 41.61,6.63 15.72,-2.85 29.12,-10.87 40.22,-24.07" /><path
         id="path70"
         style="fill:#1e3252;fill-opacity:1;fill-rule:nonzero;stroke:none"
         d="m 2772.95,3918.07 135.6,-38.14 -12.25,-55.29 -9.27,2.6 c 1.44,13.46 1.32,23.47 -0.35,30.04 -1.68,6.57 -4.77,12.01 -9.28,16.3 -4.51,4.3 -11.05,7.66 -19.61,10.06 l -21.27,5.99 c -3.3,0.92 -5.87,0.94 -7.7,0.06 -1.85,-0.89 -3.09,-2.48 -3.74,-4.8 l -15.19,-54.01 7.26,-2.04 c 8.36,-2.35 15.5,-1.79 21.44,1.69 5.94,3.48 10.82,10.4 14.65,20.76 l 9.47,-2.66 -20.37,-72.44 -9.48,2.67 c 2.74,12.18 2.49,21.37 -0.76,27.59 -3.25,6.22 -9.54,10.64 -18.88,13.26 l -6,1.69 -16.2,-57.59 c -0.71,-2.53 -0.48,-4.52 0.71,-5.99 1.8,-2.18 4.81,-3.86 9.03,-5.04 l 18.74,-5.27 c 12.84,-3.62 24.49,-2.46 34.94,3.46 10.46,5.92 19,16.89 25.62,32.9 l 9.48,-2.67 -19,-58.62 -141.4,39.77 2.76,9.79 14,-3.93 c 3.16,-0.89 5.79,-0.76 7.9,0.39 2.1,1.15 3.53,3.09 4.3,5.83 l 33.7,119.82 c 0.72,2.52 0.41,4.62 -0.89,6.27 -1.32,1.66 -4.13,3.1 -8.4,4.3 l -12.32,3.47 2.76,9.78" /><path
         id="path72"
         style="fill:#1e3252;fill-opacity:1;fill-rule:nonzero;stroke:none"
         d="m 2989.02,3772.93 12.71,-5.05 c 11.24,-4.49 21.26,-5.14 30.05,-1.96 6.64,2.46 12.03,8.9 16.18,19.34 3.83,9.62 4.23,17.6 1.18,23.95 -3.05,6.35 -10.49,11.89 -22.35,16.61 -6.36,2.54 -10.64,3.43 -12.82,2.69 -2.18,-0.74 -4.23,-3.52 -6.14,-8.33 z m -26.1,89.39 78.44,-31.23 c 12.74,-5.08 22.47,-10.85 29.19,-17.33 6.72,-6.48 10.92,-13.33 12.6,-20.55 1.68,-7.21 1.14,-14.27 -1.61,-21.17 -4.38,-11.04 -12.89,-18.01 -25.51,-20.91 -9.59,-2.22 -22.52,-1 -38.79,3.68 7.34,-4.42 12.56,-8.88 15.67,-13.38 3.1,-4.5 5.17,-10.18 6.21,-17.05 1.36,-9.02 1.37,-19.18 0.01,-30.5 -0.92,-7.24 -1.08,-11.97 -0.46,-14.17 0.61,-2.21 1.73,-3.64 3.36,-4.28 4.47,-1.79 9.5,3.08 15.11,14.58 l 8.94,-3.56 c -5.7,-12.32 -12.11,-20.24 -19.22,-23.72 -7.12,-3.48 -15.18,-3.43 -24.19,0.15 -6.43,2.57 -11.07,5.94 -13.91,10.14 -2.85,4.19 -4.28,9.23 -4.29,15.12 -0.06,3.4 0.98,10.91 3.1,22.55 2.51,13.6 3.62,22.97 3.35,28.1 -0.28,5.12 -1.59,9.38 -3.93,12.75 -2.35,3.36 -5.86,5.98 -10.54,7.84 l -11.07,4.41 -22.05,-55.38 c -0.97,-2.45 -1,-4.59 -0.09,-6.45 1.36,-2.5 3.39,-4.29 6.1,-5.37 l 13.62,-5.42 -3.76,-9.45 -76.12,30.3 3.76,9.45 11.79,-4.69 c 3.06,-1.22 5.67,-1.33 7.86,-0.36 2.2,0.97 3.86,2.87 4.99,5.72 l 45.11,113.31 c 1.24,3.11 1.43,5.68 0.6,7.71 -0.84,2.02 -2.59,3.55 -5.23,4.61 l -12.8,5.09 3.76,9.46" /><path
         id="path74"
         style="fill:#1e3252;fill-opacity:1;fill-rule:nonzero;stroke:none"
         d="m 3137.9,3791.36 70.12,-36.79 -4.72,-9.01 -7.65,4.02 c -5.23,2.74 -8.97,4.05 -11.23,3.91 -2.25,-0.13 -3.82,-1.04 -4.7,-2.72 -0.82,-1.55 -1.44,-4.51 -1.9,-8.89 l -9.57,-105.64 68.32,58.65 c 4.57,3.95 7.98,8.05 10.21,12.31 2.1,4 2.49,7.67 1.2,10.98 -1.31,3.32 -4.39,6.25 -9.23,8.79 l -6.49,3.41 4.73,9 55.4,-29.06 -4.73,-9 -4.16,2.18 c -3.55,1.86 -7.38,2.3 -11.47,1.33 -4.09,-0.99 -9.09,-3.96 -15,-8.94 l -111.94,-94.93 -11.56,6.07 13.96,154.1 c 0.53,5.24 0.03,9.17 -1.49,11.77 -1.51,2.6 -4.79,5.23 -9.82,7.87 l -3.01,1.58 4.73,9.01" /><path
         id="path76"
         style="fill:#1e3252;fill-opacity:1;fill-rule:nonzero;stroke:none"
         d="m 3314.11,3695.66 70.07,-44.31 -5.44,-8.59 -12.67,8.01 c -2.71,1.71 -5.02,2.42 -6.93,2.12 -1.93,-0.3 -3.54,-1.5 -4.87,-3.6 l -66.93,-105.84 c -1.56,-2.47 -2.02,-4.63 -1.4,-6.49 0.82,-2.42 2.79,-4.61 5.93,-6.6 l 11.28,-7.13 -5.44,-8.6 -70.07,44.31 5.44,8.6 10.73,-6.78 c 3.69,-2.34 6.69,-3.37 8.97,-3.09 2.3,0.28 4.2,1.62 5.71,4.02 l 66.19,104.65 c 1.63,2.58 2.14,4.93 1.54,7.04 -0.61,2.11 -2.39,4.1 -5.35,5.97 l -12.2,7.72 5.44,8.59" /><path
         id="path78"
         style="fill:#1e3252;fill-opacity:1;fill-rule:nonzero;stroke:none"
         d="m 3511.73,3543.71 15.7,8.3 6.46,-4.87 -36.84,-53.45 -8.04,6.06 c 8.72,16.79 12.34,31.41 10.86,43.85 -1.49,12.45 -6.69,22.03 -15.6,28.74 -9.79,7.37 -21.39,8.81 -34.81,4.33 -13.43,-4.49 -27.69,-16.77 -42.82,-36.84 -16.01,-21.24 -24.37,-39.67 -25.08,-55.28 -0.44,-12.34 4.83,-22.66 15.84,-30.96 11.02,-8.29 23.32,-11.22 36.93,-8.78 9.85,1.8 20.17,7.62 30.97,17.47 l 7.86,-5.92 c -12.96,-13.33 -27.35,-20.75 -43.18,-22.24 -15.83,-1.5 -30.59,2.91 -44.27,13.22 -17.7,13.34 -27.84,30.76 -30.4,52.26 -2.56,21.5 3.5,42 18.19,61.5 16.31,21.65 36.23,33.73 59.77,36.25 20.06,2.14 37.97,-2.74 53.75,-14.63 6.24,-4.69 11.28,-10.02 15.14,-15.99 3.85,-5.96 7.05,-13.64 9.57,-23.02" /><path
         id="path80"
         style="fill:#1e3252;fill-opacity:1;fill-rule:nonzero;stroke:none"
         d="m 3570.17,3512.5 103.4,-95.68 -36.07,-43.65 -7.07,6.53 c 7.4,11.33 11.85,20.3 13.36,26.91 1.49,6.61 1.21,12.86 -0.85,18.74 -2.06,5.88 -6.35,11.84 -12.88,17.88 l -16.21,15 c -2.52,2.33 -4.8,3.52 -6.84,3.57 -2.04,0.05 -3.88,-0.8 -5.51,-2.57 l -38.11,-41.19 5.53,-5.12 c 6.38,-5.89 12.99,-8.65 19.87,-8.24 6.87,0.39 14.37,4.33 22.49,11.82 l 7.22,-6.69 -51.1,-55.23 -7.23,6.69 c 7.99,9.59 11.95,17.9 11.89,24.91 -0.07,7.02 -3.66,13.82 -10.78,20.41 l -4.57,4.23 -40.64,-43.91 c -1.79,-1.93 -2.49,-3.81 -2.11,-5.66 0.63,-2.75 2.54,-5.62 5.75,-8.6 l 14.3,-13.22 c 9.79,-9.06 20.68,-13.33 32.69,-12.82 12,0.52 24.6,6.4 37.78,17.64 l 7.23,-6.68 -43.59,-43.56 -107.81,99.76 6.9,7.47 10.68,-9.88 c 2.41,-2.23 4.81,-3.31 7.21,-3.25 2.4,0.07 4.56,1.15 6.49,3.23 l 84.54,91.36 c 1.78,1.93 2.46,3.93 2.05,6 -0.42,2.08 -2.25,4.62 -5.52,7.64 l -9.39,8.7 6.9,7.46" /><path
         id="path82"
         style="fill:#1e3252;fill-opacity:1;fill-rule:nonzero;stroke:none"
         d="m 3768.44,3295.92 17.53,2.04 5.19,-5.78 -41,-38.01 -6.56,7.34 c 8.55,14.5 12.67,27.92 12.34,40.25 -0.33,12.33 -4.28,22.74 -11.86,31.21 -6.48,7.23 -13.7,11.35 -21.7,12.37 -8,1.01 -14.73,-0.93 -20.21,-5.84 -3.26,-2.91 -5.44,-6.48 -6.55,-10.7 -1.11,-4.22 -0.85,-9.19 0.8,-14.9 1.64,-5.71 5.9,-14.48 12.79,-26.31 7.99,-13.85 13.02,-23.88 15.06,-30.1 3.18,-9.9 3.76,-18.93 1.74,-27.11 -2.02,-8.19 -6.74,-15.61 -14.19,-22.27 -11.13,-9.97 -23.44,-14.09 -36.93,-12.36 -16.25,2.09 -30.48,9.96 -42.69,23.59 -11.23,12.55 -17.11,27.93 -17.65,46.14 l -20.44,-1.12 -5.39,6.03 44.66,39.98 6.41,-7.17 c -19.12,-29.92 -18.93,-55.76 0.54,-77.52 7.97,-8.91 16.21,-13.99 24.73,-15.26 8.52,-1.27 15.85,0.84 21.98,6.33 4.3,3.84 6.91,8.14 7.88,12.92 0.96,4.77 0.3,10.23 -1.99,16.39 -1.25,3.38 -5.25,10.94 -11.97,22.71 -8.96,15.93 -14.43,28.12 -16.38,36.59 -1.96,8.46 -1.86,16.06 0.29,22.78 2.15,6.72 6.48,12.99 13,18.82 10.97,9.82 23.21,14.15 36.72,12.98 13.51,-1.16 25.82,-7.94 36.9,-20.33 10.66,-11.9 16.3,-26.46 16.95,-43.69" /><path
         id="path84"
         style="fill:#1e3252;fill-opacity:1;fill-rule:nonzero;stroke:none"
         d="m 1376.74,2816.98 c -156.42,-154.31 -234.62,-267.95 -234.62,-340.95 0,-34.65 18.47,-60.75 55.44,-78.3 28.17,-12.94 61.9,-19.4 101.17,-19.4 116.87,0 231.21,34.75 343.02,104.29 111.79,69.53 167.7,136.86 167.7,202 0,50.35 -48.78,88 -146.32,112.96 -66.57,17.09 -136.38,25.63 -209.42,25.63 -27.75,0 -53.41,-2.07 -76.97,-6.23" /><path
         id="path86"
         style="fill:#1e3252;fill-opacity:1;fill-rule:nonzero;stroke:none"
         d="m 2096.34,3138 c 0,60.86 -82.94,91.29 -248.81,91.29 l -94.25,-1.38 -328.7,-354.1 c 142.34,18.43 270.37,44.02 384.06,76.76 191.8,54.87 287.7,117.34 287.7,187.43" /><path
         id="path88"
         style="fill:#1e3252;fill-opacity:1;fill-rule:nonzero;stroke:none"
         d="m 4581.5,3008.42 -0.19,-1.43 c -5.82,-34.95 -12.43,-74.56 -47.03,-74.56 -27.39,0 -30.61,28.75 -31.98,41.03 -0.95,8.5 -2.14,19.08 -5.48,30.78 -19.43,61.52 -58.5,120.33 -210.08,129.53 -6.55,0.38 -13.17,0.56 -19.88,0.56 -44.56,0 -92.77,-8.44 -144.7,-25.26 -18.48,-5.99 -37.46,-13.07 -56.89,-21.2 -98.01,-40.99 -208.16,-109.16 -331.27,-205.13 -10.45,-8.15 -21.02,-16.56 -31.67,-25.11 -25.05,-20.12 -50.61,-41.35 -76.71,-63.69 74.69,-134.56 129.38,-280.01 161.85,-430.04 l -2.92,-0.65 c -34.83,148.47 -91.43,291.62 -167.34,423.43 C 3506.1,2690.94 3385.59,2575.3 3255.1,2439.12 2844.99,2011.57 2603.58,1659.76 2297.95,1214.34 l -19.93,-29.03 c -45.89,-68.88 -109.31,-98.02 -178.41,-81.77 -60.75,13.81 -101.58,37.4 -121.17,70.05 -13.54,22.56 -16.67,49.24 -9.06,77.16 l 0.32,1.07 c 37.67,117.21 97.16,438.69 106.17,713.37 5.69,147.74 15.82,338.58 40.38,488.21 -172.88,-270.12 -456.34,-574.94 -766.73,-822.29 -24.7,-19.69 -49.54,-39.05 -74.54,-57.96 -50.05,-37.53 -100.75,-73.37 -151.88,-107.47 -45.4,-32.66 -88.55,-62.59 -131.198,-89.05 65.558,-126.73 148.308,-244.41 245.928,-348.11 184.64,-198.418 423.92,-344.821 683.86,-418.25 129.92,-36.93 264.91,-54.821 399.68,-55.079 16.85,-0.492 33.7,0.758 50.53,1.047 l 25.27,0.762 c 8.42,0.129 16.83,0.559 25.22,1.422 33.56,2.859 67.2,5.019 100.52,10.117 66.96,7.621 132.93,22.133 198.14,38.891 261.18,68.5 500.92,211.121 694.87,401.66 l 2.17,-2.07 C 3235.95,803.809 2993.7,653.379 2728.97,578.488 2596.42,541.961 2458.65,523.781 2321.17,525.5 c -137.44,2.172 -274.63,22.352 -406.15,61.711 -263.38,77.551 -503.96,228.73 -688.19,431.119 -96.88,105.99 -178.37,225.58 -242.373,353.76 -41.922,-25.63 -83.457,-47.87 -126.242,-65.74 -65.547,-27.37 -134.067,-44.7 -211.543,-49.01 -3.125,-0.17 -6.246,-0.21 -9.356,-0.21 -3.492,0 -6.976,0.06 -10.449,0.06 -57.301,0 -111.883,5.41 -163.144,15.07 -24.981,4.71 -49.121,10.45 -72.387,17.11 -111.695,31.98 -202.731,85.11 -262.813,147.36 -58.7417,60.85 -88.5269,135.93 -88.5269,223.17 0,166.19 94.7419,267.68 197.8129,312.93 19.636,8.62 39.558,15.25 59.199,19.84 23.117,5.41 45.828,8.09 67.156,8.09 136.781,0 218.438,-68.56 218.438,-183.38 0,-71.77 -38.7,-120.92 -96.809,-172.62 -73.031,-62.84 -93.297,-102.23 -97.488,-124.26 -4.129,-25.03 0.765,-46.22 15.086,-64.12 34.586,-43.23 122.339,-87.05 247.105,-87.05 60.027,0 113.883,9.35 164.887,26.22 2.242,0.75 4.465,1.56 6.695,2.32 42.328,14.63 82.777,34.55 123.266,58.59 -38.778,90.78 -69.043,185.14 -89.731,281.57 l 2.93,0.66 c 21.996,-95.66 53.434,-188.96 93.172,-278.49 71.655,43.31 143.725,99.62 226.795,163.41 24.58,18.87 50.1,38.38 76.89,58.41 17.66,13.72 35.1,27.55 52.41,41.44 378.38,303.81 672.05,651.64 873.8,1035.36 34.07,68.16 96.16,146.72 157.96,199.69 74.83,60.83 168.62,95.48 257.82,95.48 52.89,0 90.94,-16.46 104.38,-45.15 8.78,-18.75 5.61,-40.23 -8.47,-57.66 -44.1,-62 -77.36,-145.53 -93.68,-235.31 l -0.22,-1.04 c -31.57,-139.81 -49.37,-344.46 -66.58,-542.38 -19.89,-255.27 -41.78,-430.51 -70.59,-555.84 172.41,242.85 465.47,645.65 688.91,901.01 125.81,145.28 250.88,285.45 376.15,407.39 -14.56,19.93 -29.5,39.57 -45.04,58.75 -145.17,180.35 -331.08,327.65 -540.59,424.84 -209.75,96.86 -441.26,142.56 -671.49,137.57 -230.6,-3.56 -459.53,-62.16 -667.75,-165.56 l -1.43,2.64 c 50.11,29.77 102.52,55.72 156.12,79.05 53.82,22.83 109.07,42.41 165.35,58.74 112.62,32.52 229.52,50.23 346.89,55.12 235.2,9.1 471.32,-44.52 682.56,-145.86 211.62,-101.51 397.88,-253.24 542.1,-437.22 14.93,-19.1 29.28,-38.64 43.26,-58.43 23.79,22.96 47.59,45.34 71.41,66.87 10.01,9.05 20.03,17.98 30.05,26.76 106.4,93.22 213.16,170.4 320.87,223.6 18.46,9.12 36.97,17.56 55.5,25.23 84.46,34.94 169.55,54.39 255.56,54.39 4.56,0 9.15,-0.06 13.71,-0.16 95.42,-2.39 177.79,-37.79 231.97,-99.68 51.26,-58.55 74.4,-137.83 65.16,-223.24 z M 2728.63,966.742 c 92.77,0 192.25,18.488 298.42,55.478 108.47,37.89 197.33,86.22 266.58,144.93 67.38,57.32 101.08,100.33 101.08,129 0,28.18 -45.5,47.62 -136.51,58.24 -150.61,17.56 -234.92,28.44 -252.94,32.62 -91.01,22.17 -136.51,61.46 -136.51,117.89 0,71.64 53.36,139.84 160.08,204.57 87.31,53.16 198.41,98.01 333.32,134.53 118.25,31.9 212.96,47.85 284.11,47.85 91,0 136.51,-28.18 136.51,-84.55 0,-48.49 -42.26,-105.56 -126.81,-171.15 -81.77,-63.3 -148.53,-94.94 -200.27,-94.94 -41.57,0 -62.36,14.31 -62.36,42.97 0,24 23.79,52.18 71.37,84.53 45.27,30.49 80.61,45.74 106.03,45.74 8.77,0 13.16,-2.77 13.16,-8.32 l -71.37,-38.81 c -47.59,-25.88 -72.31,-44.8 -74.15,-56.81 2.32,-3.25 6.25,-4.85 11.81,-4.85 33.33,0 88.21,22.17 164.61,66.53 81.04,47.1 121.56,85.91 121.56,116.4 0,26.8 -32.38,40.2 -97.1,40.2 -73.98,0 -178.25,-21.29 -312.8,-63.87 -90.62,-28.69 -170.14,-59.22 -238.57,-91.62 -118.37,-55.53 -177.55,-105.72 -177.55,-150.61 0,-28.69 37.42,-49.98 112.26,-63.86 l 222.44,-28.68 c 86.85,-12.95 139.74,-31.91 158.69,-56.87 20.79,-28.22 31.18,-56.43 31.18,-84.63 0,-49.47 -36.49,-107.52 -109.48,-174.1 -76.23,-69.83 -168.64,-124.159 -277.19,-163.011 -103.03,-36.519 -208.58,-54.797 -316.69,-54.797 -146.91,0 -220.36,44.117 -220.36,132.358 0,52.67 41.34,100.7 124.04,144.14 72.06,38.34 137.66,57.52 196.8,57.52 18.93,0 28.42,-5.78 28.42,-17.32 0,-7.88 -9.69,-13.17 -29.05,-15.94 -56.24,-8.79 -110.62,-24.94 -163.16,-48.52 -73.76,-32.34 -110.63,-68.59 -110.63,-108.79 0,-48.979 57.02,-73.448 171.03,-73.448 z M 4335.16,2080 C 4335.16,966.121 3428.96,59.9219 2315.09,59.9219 1505.35,59.9219 805.496,538.871 483.602,1228.31 c 46.382,-7.21 94.336,-11.12 143.265,-11.12 l 4.879,-0.03 5.57,-0.03 c 3.852,0 7.711,0.06 11.575,0.27 83.816,4.67 157.918,23.92 228.32,53.77 C 1156.09,763.898 1695.33,420 2315.08,420 c 905.75,0 1640.01,734.26 1640.01,1640 0,285.42 -73.1,553.69 -201.31,787.43 l 4.82,3.77 c 121.62,94.81 230.72,161.92 326.54,201.34 159.25,-288.68 250.02,-620.19 250.02,-972.54 z M 2131.68,3110.1 c 0,-70.68 -54.06,-128.66 -162.15,-173.93 -46.67,-19.87 -131.21,-43.66 -253.63,-71.38 -24.95,-6.93 -62.84,-14.1 -113.65,-21.48 12.93,-0.46 39.04,-5.54 78.3,-15.25 120.12,-30.04 180.18,-86.39 180.18,-169.08 0,-85.01 -60.63,-164.7 -181.9,-239.07 -121.27,-74.39 -240.12,-111.57 -356.54,-111.57 -59.6,0 -107.88,11.54 -144.83,34.63 -43.9,27.69 -65.83,69.7 -65.83,126.03 0,21.23 2.37,41.54 7.14,60.94 l -85.31,-102.86 c -46.226,-54.69 -74.429,-82.01 -84.597,-82.01 -8.183,0 -16.484,3.11 -24.89,9.36 -8.41,6.25 -12.61,13.54 -12.61,21.87 0,25.44 53.332,95.99 160.027,211.67 118.7,129.07 184.51,205.17 197.44,228.32 l -11.67,29.79 c 0,21.71 21.88,30.26 65.69,25.65 l 335.3,347.87 c -169.93,-19.41 -297.83,-50.37 -383.72,-92.86 -23.08,-11.56 -38.78,-17.33 -47.09,-17.33 -21.24,0 -31.86,9.46 -31.86,28.41 0,30.5 57.36,62.37 172.12,95.64 114.74,33.25 236.54,53.35 365.38,60.28 27.8,24.95 47.25,37.42 58.38,37.42 8.79,0 15.29,-4.2 19.45,-12.59 4.17,-8.4 5.11,-16.67 2.8,-24.83 212.04,0 318.07,-61.22 318.07,-183.64 z m 183.41,989.98 c 662.65,0 1251.78,-320.75 1620.36,-815.12 -101.54,-51.16 -207.46,-125.56 -320.88,-224.69 -299.88,389 -770.33,639.73 -1299.49,639.73 -905.75,0 -1639.998,-734.25 -1639.998,-1640 0,-222.31 44.309,-434.24 124.465,-627.56 -46.301,-14.89 -94.867,-23.11 -149.051,-23.11 -108.723,0 -188.117,37.35 -215.871,72.04 -4.961,6.2 -9.648,14.85 -6.953,32.04 1.437,6.73 11.808,38.74 84.211,101.03 l 0.254,0.22 0.242,0.22 c 57.246,50.94 110.223,110.72 110.223,202.5 0,137.78 -99.032,223.38 -258.438,223.38 -21.836,0 -44.98,-2.55 -68.566,-7.56 -0.356,15.56 -0.594,31.15 -0.594,46.8 0,1113.88 906.206,2020.08 2020.086,2020.08 z M 4546.43,3258 c -61.63,70.41 -154.34,110.65 -261.06,113.32 -4.91,0.12 -9.83,0.18 -14.71,0.18 -91.58,0 -183.96,-19.88 -279.84,-60.8 C 3611.81,3825.38 3001.83,4160 2315.09,4160 1168.17,4160 235.082,3226.91 235.082,2080 c 0,-21.64 0.441,-43.19 1.102,-64.67 C 115.125,1967.97 -0.00390625,1853.04 -0.00390625,1659.9 -0.00390625,1561.95 33.5586,1477.52 99.7422,1408.94 175.109,1330.87 284.895,1273.44 411.273,1242.67 734.07,511.578 1465.9,0 2315.09,0 c 1146.91,0 2080,933.07 2080,2080 0,359.47 -91.69,697.91 -252.87,993.23 44.92,13.91 86.57,21.1 124.64,21.1 5.91,0 11.82,-0.16 17.56,-0.49 133.19,-8.09 159.21,-54.29 174.08,-101.08 2.31,-8.27 3.19,-16.09 4.04,-23.65 7.7,-69.21 52.74,-76.68 71.74,-76.68 68.5,0 80.2,70.25 86.48,107.99 l 0.1,0.56 0.08,0.57 0.19,1.42 0.08,0.57 0.06,0.57 c 10.46,96.66 -16.13,186.83 -74.84,253.89" /><path
         id="path90"
         style="fill:#1e3252;fill-opacity:1;fill-rule:nonzero;stroke:none"
         d="m 2211.26,248.859 c 0,-23.429 19,-42.429 42.43,-42.429 23.43,0 42.43,19 42.43,42.429 0,23.43 -19,42.43 -42.43,42.43 -23.43,0 -42.43,-19 -42.43,-42.43" /><path
         id="path92"
         style="fill:#1e3252;fill-opacity:1;fill-rule:nonzero;stroke:none"
         d="m 2352.08,250.43 c 0,-23.43 18.99,-42.418 42.43,-42.418 23.43,0 42.42,18.988 42.42,42.418 0,23.429 -18.99,42.429 -42.42,42.429 -23.44,0 -42.43,-19 -42.43,-42.429" /><path
         id="path94"
         style="fill:#1e3252;fill-opacity:1;fill-rule:nonzero;stroke:none"
         d="m 2071.58,257.672 c 0,-23.43 19,-42.434 42.43,-42.434 23.43,0 42.43,19.004 42.43,42.434 0,23.43 -19,42.43 -42.43,42.43 -23.43,0 -42.43,-19 -42.43,-42.43" /><path
         id="path96"
         style="fill:#1e3252;fill-opacity:1;fill-rule:nonzero;stroke:none"
         d="m 2491.4,262.398 c 0,-23.429 19,-42.418 42.43,-42.418 23.42,0 42.42,18.989 42.42,42.418 0,23.442 -19,42.434 -42.42,42.434 -23.43,0 -42.43,-18.992 -42.43,-42.434" /><path
         id="path98"
         style="fill:#1e3252;fill-opacity:1;fill-rule:nonzero;stroke:none"
         d="m 1933.02,277.199 c 0,-23.429 18.99,-42.429 42.43,-42.429 23.42,0 42.42,19 42.42,42.429 0,23.43 -19,42.43 -42.42,42.43 -23.44,0 -42.43,-19 -42.43,-42.43" /><path
         id="path100"
         style="fill:#1e3252;fill-opacity:1;fill-rule:nonzero;stroke:none"
         d="m 2629.43,284.73 c 0,-23.421 19,-42.421 42.42,-42.421 23.44,0 42.43,19 42.43,42.421 0,23.43 -18.99,42.43 -42.43,42.43 -23.42,0 -42.42,-19 -42.42,-42.43" /><path
         id="path102"
         style="fill:#1e3252;fill-opacity:1;fill-rule:nonzero;stroke:none"
         d="m 1796.47,307.91 c 0,-23.441 19,-42.43 42.43,-42.43 23.43,0 42.43,18.989 42.43,42.43 0,23.43 -19,42.418 -42.43,42.418 -23.43,0 -42.43,-18.988 -42.43,-42.418" /><path
         id="path104"
         style="fill:#1e3252;fill-opacity:1;fill-rule:nonzero;stroke:none"
         d="m 2765.17,317.211 c 0,-23.422 19,-42.422 42.43,-42.422 23.42,0 42.42,19 42.42,42.422 0,23.43 -19,42.43 -42.42,42.43 -23.43,0 -42.43,-19 -42.43,-42.43" /><path
         id="path106"
         style="fill:#1e3252;fill-opacity:1;fill-rule:nonzero;stroke:none"
         d="m 1662.77,349.691 c 0,-23.429 18.99,-42.429 42.42,-42.429 23.44,0 42.43,19 42.43,42.429 0,23.418 -18.99,42.418 -42.43,42.418 -23.43,0 -42.42,-19 -42.42,-42.418" /><path
         id="path108"
         style="fill:#1e3252;fill-opacity:1;fill-rule:nonzero;stroke:none"
         d="m 2898.16,359.691 c 0,-23.429 19,-42.429 42.42,-42.429 23.43,0 42.43,19 42.43,42.429 0,23.43 -19,42.43 -42.43,42.43 -23.42,0 -42.42,-19 -42.42,-42.43" /><path
         id="path110"
         style="fill:#1e3252;fill-opacity:1;fill-rule:nonzero;stroke:none"
         d="m 1532.96,402.199 c 0,-23.418 19,-42.418 42.43,-42.418 23.43,0 42.42,19 42.42,42.418 0,23.43 -18.99,42.43 -42.42,42.43 -23.43,0 -42.43,-19 -42.43,-42.43" /><path
         id="path112"
         style="fill:#1e3252;fill-opacity:1;fill-rule:nonzero;stroke:none"
         d="m 3027.73,411.898 c 0,-23.429 19,-42.418 42.42,-42.418 23.43,0 42.43,18.989 42.43,42.418 0,23.43 -19,42.422 -42.43,42.422 -23.42,0 -42.42,-18.992 -42.42,-42.422" /><path
         id="path114"
         style="fill:#1e3252;fill-opacity:1;fill-rule:nonzero;stroke:none"
         d="m 1407.85,465.02 c 0,-23.442 19,-42.43 42.43,-42.43 23.43,0 42.42,18.988 42.42,42.43 0,23.421 -18.99,42.421 -42.42,42.421 -23.43,0 -42.43,-19 -42.43,-42.421" /><path
         id="path116"
         style="fill:#1e3252;fill-opacity:1;fill-rule:nonzero;stroke:none"
         d="m 3153.1,473.551 c 0,-23.43 19,-42.422 42.42,-42.422 23.44,0 42.44,18.992 42.44,42.422 0,23.429 -19,42.418 -42.44,42.418 -23.42,0 -42.42,-18.989 -42.42,-42.418" /><path
         id="path118"
         style="fill:#1e3252;fill-opacity:1;fill-rule:nonzero;stroke:none"
         d="m 1288.2,537.57 c 0,-23.429 18.99,-42.429 42.42,-42.429 23.43,0 42.42,19 42.42,42.429 0,23.418 -18.99,42.418 -42.42,42.418 -23.43,0 -42.42,-19 -42.42,-42.418" /><path
         id="path120"
         style="fill:#1e3252;fill-opacity:1;fill-rule:nonzero;stroke:none"
         d="m 3273.61,544.332 c 0,-23.422 18.99,-42.422 42.42,-42.422 23.43,0 42.42,19 42.42,42.422 0,23.43 -18.99,42.43 -42.42,42.43 -23.43,0 -42.42,-19 -42.42,-42.43" /><path
         id="path122"
         style="fill:#1e3252;fill-opacity:1;fill-rule:nonzero;stroke:none"
         d="m 1174.63,619.27 c 0,-23.418 18.99,-42.418 42.42,-42.418 23.43,0 42.43,19 42.43,42.418 0,23.441 -19,42.441 -42.43,42.441 -23.43,0 -42.42,-19 -42.42,-42.441" /><path
         id="path124"
         style="fill:#1e3252;fill-opacity:1;fill-rule:nonzero;stroke:none"
         d="m 3388.55,623.852 c 0,-23.422 19,-42.422 42.42,-42.422 23.44,0 42.44,19 42.44,42.422 0,23.429 -19,42.429 -42.44,42.429 -23.42,0 -42.42,-19 -42.42,-42.429" /><path
         id="path126"
         style="fill:#1e3252;fill-opacity:1;fill-rule:nonzero;stroke:none"
         d="m 1067.72,709.512 c 0,-23.43 18.99,-42.422 42.42,-42.422 23.43,0 42.43,18.992 42.43,42.422 0,23.429 -19,42.418 -42.43,42.418 -23.43,0 -42.42,-18.989 -42.42,-42.418" /><path
         id="path128"
         style="fill:#1e3252;fill-opacity:1;fill-rule:nonzero;stroke:none"
         d="m 3497.26,711.77 c 0,-23.43 19,-42.43 42.43,-42.43 23.42,0 42.42,19 42.42,42.43 0,23.429 -19,42.429 -42.42,42.429 -23.43,0 -42.43,-19 -42.43,-42.429" /><path
         id="path130"
         style="fill:#1e3252;fill-opacity:1;fill-rule:nonzero;stroke:none"
         d="m 967.984,807.559 c 0,-23.43 18.996,-42.43 42.426,-42.43 23.43,0 42.42,19 42.42,42.43 0,23.429 -18.99,42.429 -42.42,42.429 -23.43,0 -42.426,-19 -42.426,-42.429" /><path
         id="path132"
         style="fill:#1e3252;fill-opacity:1;fill-rule:nonzero;stroke:none"
         d="m 3599.08,807.641 c 0,-23.422 18.99,-42.422 42.42,-42.422 23.43,0 42.42,19 42.42,42.422 0,23.429 -18.99,42.429 -42.42,42.429 -23.43,0 -42.42,-19 -42.42,-42.429" /><path
         id="path134"
         style="fill:#1e3252;fill-opacity:1;fill-rule:nonzero;stroke:none"
         d="m 3693.29,911.031 c 0,-23.429 18.99,-42.422 42.43,-42.422 23.43,0 42.42,18.993 42.42,42.422 0,23.43 -18.99,42.418 -42.42,42.418 -23.44,0 -42.43,-18.988 -42.43,-42.418" /><path
         id="path136"
         style="fill:#1e3252;fill-opacity:1;fill-rule:nonzero;stroke:none"
         d="m 875.883,912.828 c 0,-23.43 18.992,-42.418 42.426,-42.418 23.433,0 42.425,18.988 42.425,42.418 0,23.442 -18.992,42.434 -42.425,42.434 -23.434,0 -42.426,-18.992 -42.426,-42.434" /><path
         id="path138"
         style="fill:#1e3252;fill-opacity:1;fill-rule:nonzero;stroke:none"
         d="m 3779.3,1021.4 c 0,-23.431 19,-42.431 42.44,-42.431 23.42,0 42.42,19 42.42,42.431 0,23.43 -19,42.43 -42.42,42.43 -23.44,0 -42.44,-19 -42.44,-42.43" /><path
         id="path140"
         style="fill:#1e3252;fill-opacity:1;fill-rule:nonzero;stroke:none"
         d="m 791.809,1024.59 c 0,-23.43 18.996,-42.418 42.425,-42.418 23.43,0 42.422,18.988 42.422,42.418 0,23.43 -18.992,42.43 -42.422,42.43 -23.429,0 -42.425,-19 -42.425,-42.43" /><path
         id="path142"
         style="fill:#1e3252;fill-opacity:1;fill-rule:nonzero;stroke:none"
         d="m 3856.45,1138.2 c 0,-23.43 19,-42.42 42.43,-42.42 23.43,0 42.43,18.99 42.43,42.42 0,23.44 -19,42.43 -42.43,42.43 -23.43,0 -42.43,-18.99 -42.43,-42.43" /><path
         id="path144"
         style="fill:#1e3252;fill-opacity:1;fill-rule:nonzero;stroke:none"
         d="m 716.141,1142.19 c 0,-23.43 18.992,-42.43 42.425,-42.43 23.434,0 42.426,19 42.426,42.43 0,23.42 -18.992,42.42 -42.426,42.42 -23.433,0 -42.425,-19 -42.425,-42.42" /><path
         id="path146"
         style="fill:#1e3252;fill-opacity:1;fill-rule:nonzero;stroke:none"
         d="m 3924.1,1260.84 c 0,-23.44 18.99,-42.43 42.42,-42.43 23.44,0 42.43,18.99 42.43,42.43 0,23.43 -18.99,42.42 -42.43,42.42 -23.43,0 -42.42,-18.99 -42.42,-42.42" /><path
         id="path148"
         style="fill:#1e3252;fill-opacity:1;fill-rule:nonzero;stroke:none"
         d="m 3981.74,1388.6 c 0,-23.43 18.99,-42.42 42.42,-42.42 23.43,0 42.42,18.99 42.42,42.42 0,23.43 -18.99,42.42 -42.42,42.42 -23.43,0 -42.42,-18.99 -42.42,-42.42" /><path
         id="path150"
         style="fill:#1e3252;fill-opacity:1;fill-rule:nonzero;stroke:none"
         d="m 4028.83,1520.59 c 0,-23.42 18.99,-42.42 42.42,-42.42 23.43,0 42.42,19 42.42,42.42 0,23.43 -18.99,42.43 -42.42,42.43 -23.43,0 -42.42,-19 -42.42,-42.43" /><path
         id="path152"
         style="fill:#1e3252;fill-opacity:1;fill-rule:nonzero;stroke:none"
         d="m 4064.92,1655.74 c 0,-23.43 18.99,-42.42 42.42,-42.42 23.44,0 42.43,18.99 42.43,42.42 0,23.44 -18.99,42.43 -42.43,42.43 -23.43,0 -42.42,-18.99 -42.42,-42.43" /><path
         id="path154"
         style="fill:#1e3252;fill-opacity:1;fill-rule:nonzero;stroke:none"
         d="m 4089.95,1793.36 c 0,-23.43 18.99,-42.42 42.42,-42.42 23.43,0 42.42,18.99 42.42,42.42 0,23.42 -18.99,42.42 -42.42,42.42 -23.43,0 -42.42,-19 -42.42,-42.42" /><path
         id="path156"
         style="fill:#1e3252;fill-opacity:1;fill-rule:nonzero;stroke:none"
         d="m 4103.89,1932.6 c 0,-23.42 19,-42.42 42.43,-42.42 23.42,0 42.42,19 42.42,42.42 0,23.43 -19,42.43 -42.42,42.43 -23.43,0 -42.43,-19 -42.43,-42.43" /><path
         id="path158"
         style="fill:#1e3252;fill-opacity:1;fill-rule:nonzero;stroke:none"
         d="m 4107.15,2073.45 c 0,-23.43 18.99,-42.43 42.42,-42.43 23.43,0 42.42,19 42.42,42.43 0,23.43 -18.99,42.43 -42.42,42.43 -23.43,0 -42.42,-19 -42.42,-42.43" /><path
         id="path160"
         style="fill:#1e3252;fill-opacity:1;fill-rule:nonzero;stroke:none"
         d="m 4100.1,2213.25 c 0,-23.43 18.99,-42.42 42.42,-42.42 23.42,0 42.42,18.99 42.42,42.42 0,23.44 -19,42.43 -42.42,42.43 -23.43,0 -42.42,-18.99 -42.42,-42.43" /><path
         id="path162"
         style="fill:#1e3252;fill-opacity:1;fill-rule:nonzero;stroke:none"
         d="m 4083.02,2352.15 c 0,-23.43 18.99,-42.43 42.42,-42.43 23.42,0 42.42,19 42.42,42.43 0,23.43 -19,42.43 -42.42,42.43 -23.43,0 -42.42,-19 -42.42,-42.43" /><path
         id="path164"
         style="fill:#1e3252;fill-opacity:1;fill-rule:nonzero;stroke:none"
         d="m 4056.27,2489.56 c 0,-23.43 18.99,-42.43 42.42,-42.43 23.43,0 42.42,19 42.42,42.43 0,23.43 -18.99,42.42 -42.42,42.42 -23.43,0 -42.42,-18.99 -42.42,-42.42" /><path
         id="path166"
         style="fill:#1e3252;fill-opacity:1;fill-rule:nonzero;stroke:none"
         d="m 4020.07,2624.78 c 0,-23.43 18.99,-42.42 42.43,-42.42 23.43,0 42.42,18.99 42.42,42.42 0,23.43 -18.99,42.42 -42.42,42.42 -23.44,0 -42.43,-18.99 -42.43,-42.42" /><path
         id="path168"
         style="fill:#1e3252;fill-opacity:1;fill-rule:nonzero;stroke:none"
         d="m 3974.37,2757.14 c 0,-23.43 19,-42.43 42.42,-42.43 23.44,0 42.44,19 42.44,42.43 0,23.43 -19,42.43 -42.44,42.43 -23.42,0 -42.42,-19 -42.42,-42.43" /><path
         id="path170"
         style="fill:#1e3252;fill-opacity:1;fill-rule:nonzero;stroke:none"
         d="m 3918,2885.6 c 0,-23.43 18.99,-42.43 42.43,-42.43 23.42,0 42.42,19 42.42,42.43 0,23.43 -19,42.42 -42.42,42.42 -23.44,0 -42.43,-18.99 -42.43,-42.42" /></g></g></svg>
