<svg id="BNS_Logo" data-name="BNS Logo" xmlns="http://www.w3.org/2000/svg" viewBox="0 0 462.35 416"><defs><style>.cls-1{fill:#173555;}</style></defs><path class="cls-1" d="M203,303.54l.48-9.8a5.49,5.49,0,0,1,1.27-3.54,3.36,3.36,0,0,1,2.76-1.18,3.18,3.18,0,0,1,2.35,1.17,7.05,7.05,0,0,1,1.37,3.2,7.73,7.73,0,0,1,1.72-3.85,3.41,3.41,0,0,1,2.71-1,3.68,3.68,0,0,1,2.39.95,4.88,4.88,0,0,1,1.18,2.12,9.78,9.78,0,0,1,.38,3.5l-.46,9.26-1,0,.07-1.49a.72.72,0,0,0-.2-.59,1.2,1.2,0,0,0-.74-.3l-12.51-.61a.53.53,0,0,0-.47.22,1.45,1.45,0,0,0-.21.82l-.07,1.25Zm7.59-5.43.09-1.82a3.8,3.8,0,0,0-.65-2.73,3.54,3.54,0,0,0-2.56-.93,2.8,2.8,0,0,0-2.27.66,4.73,4.73,0,0,0-.81,2.92,3,3,0,0,0,.12,1.32.73.73,0,0,0,.66.31Zm1,.05,5.88.29a1,1,0,0,0,.7-.16.64.64,0,0,0,.27-.52l.1-2.1a3.36,3.36,0,0,0-.72-2.46,3.22,3.22,0,0,0-2.42-1,3.41,3.41,0,0,0-2.65.81,3.75,3.75,0,0,0-1,2.68Z" transform="translate(-161.45 -95)"/><path class="cls-1" d="M204.18,283.53l1.29-8.35a9,9,0,0,1,1-3.23,4.27,4.27,0,0,1,1.72-1.69,3.47,3.47,0,0,1,2.1-.31,3.34,3.34,0,0,1,2.61,2,8.11,8.11,0,0,1,.51,3.86,4.88,4.88,0,0,1,1-1.82,4,4,0,0,1,1.53-1,11.5,11.5,0,0,1,3-.68,4.44,4.44,0,0,0,1.39-.27.58.58,0,0,0,.34-.42c.08-.48-.51-.86-1.76-1.15l.15-.95a4.72,4.72,0,0,1,2.74,1.34,2.88,2.88,0,0,1,.53,2.36,2.92,2.92,0,0,1-.68,1.59,2.62,2.62,0,0,1-1.38.75,15.15,15.15,0,0,1-2.27.2,14.51,14.51,0,0,0-2.81.3,2.41,2.41,0,0,0-1.15.67,2.15,2.15,0,0,0-.53,1.2l-.19,1.18,5.89.91a.77.77,0,0,0,.63-.13,1.12,1.12,0,0,0,.39-.72l.23-1.44,1,.15-1.26,8.1-1-.16.19-1.25a.89.89,0,0,0-.81-1.14l-12-1.87a1,1,0,0,0-.76.12.86.86,0,0,0-.33.61l-.22,1.36Zm8.13-4.54.21-1.35a4.14,4.14,0,0,0-.48-3,3.11,3.11,0,0,0-2.25-1.14,2.94,2.94,0,0,0-2.36.42,4,4,0,0,0-1.12,2.55,2.35,2.35,0,0,0,0,1.31,1.35,1.35,0,0,0,.94.41Z" transform="translate(-161.45 -95)"/><path class="cls-1" d="M209.2,255.71l15.58-2.16a2,2,0,0,0,.95-.34,1.4,1.4,0,0,0,.42-.73l.15-.57,1,.26-1.94,7.34-1-.26.18-.69a2.48,2.48,0,0,0,.12-1.16.57.57,0,0,0-.4-.44,1.51,1.51,0,0,0-.57,0l-3.22.44-1.54,5.85,1.17.91a3.63,3.63,0,0,0,1.14.67,1.45,1.45,0,0,0,1.25-.21,2.18,2.18,0,0,0,.79-1.28l.13-.49,1,.26L222.83,269l-1-.26.09-.34a1.6,1.6,0,0,0-.09-1.1,3.44,3.44,0,0,0-1.05-1.3l-11.9-9.15Zm3.51,2.74,5.3,4.08,1.31-5Z" transform="translate(-161.45 -95)"/><path class="cls-1" d="M212.55,245.25l3.1-8.13a8.38,8.38,0,0,1,2.42-3.54,7.09,7.09,0,0,1,3.68-1.6,8.39,8.39,0,0,1,4.27.54,8.94,8.94,0,0,1,3.6,2.36,6.91,6.91,0,0,1,1.68,3.61,7.91,7.91,0,0,1-.42,4.09L227.66,251l-.95-.36.48-1.26a1,1,0,0,0,0-.79,1.08,1.08,0,0,0-.61-.5l-11.39-4.34a.91.91,0,0,0-.76,0,1.39,1.39,0,0,0-.53.75l-.42,1.12Zm17-2a4.68,4.68,0,0,0,.24-2.75,4.25,4.25,0,0,0-1.33-2.3,11.91,11.91,0,0,0-3.61-1.93,12.49,12.49,0,0,0-4.35-1,4.28,4.28,0,0,0-2.63.76,5.81,5.81,0,0,0-1.7,2.61,3.08,3.08,0,0,0-.31,1.36.75.75,0,0,0,.53.51l11.45,4.36a1.13,1.13,0,0,0,.81.07.92.92,0,0,0,.48-.59Z" transform="translate(-161.45 -95)"/><path class="cls-1" d="M225.93,217.28l-.84-1.56.35-.69,5,2.41-.44.88a7.6,7.6,0,0,0-4.2.34,4.69,4.69,0,0,0-2.46,2.25,3.45,3.45,0,0,0-.35,2.47,2.46,2.46,0,0,0,1.28,1.67,2.23,2.23,0,0,0,1.24.21,2.84,2.84,0,0,0,1.36-.62,13,13,0,0,0,2-2.16,18.47,18.47,0,0,1,2.25-2.51,5,5,0,0,1,2.45-1.16,4.43,4.43,0,0,1,2.6.5,4.48,4.48,0,0,1,2.5,3,6.76,6.76,0,0,1-.62,4.84,7,7,0,0,1-3.64,3.34l.86,1.86-.36.72-5.36-2.68.43-.86q5.22,1,7.18-2.91a4.18,4.18,0,0,0,.51-2.86,2.57,2.57,0,0,0-1.4-1.81,2.36,2.36,0,0,0-1.49-.25,3,3,0,0,0-1.45.79,22.52,22.52,0,0,0-1.67,1.94,15.24,15.24,0,0,1-2.8,2.87,4.2,4.2,0,0,1-2.13.82,4.45,4.45,0,0,1-2.23-.52,4.74,4.74,0,0,1-2.55-2.94,5.54,5.54,0,0,1,.53-4.18A6.74,6.74,0,0,1,225.93,217.28Z" transform="translate(-161.45 -95)"/><path class="cls-1" d="M228.18,210.25l4-6.32.85.54-.59.94a1.07,1.07,0,0,0-.2.7.72.72,0,0,0,.35.49l4.48,2.84,3.31-5.21-4.25-2.69a1.11,1.11,0,0,0-.82-.23,1.17,1.17,0,0,0-.63.58l-.51.79-.86-.54,4-6.34.86.55-.54.85a1.21,1.21,0,0,0-.25.81.83.83,0,0,0,.44.56l10.32,6.55a1.07,1.07,0,0,0,.79.21.91.91,0,0,0,.58-.46l.6-1,.86.55-4,6.33-.86-.54.61-1a.94.94,0,0,0,.19-.68,1,1,0,0,0-.49-.55L241.53,205l-3.3,5.21,4.91,3.12a1,1,0,0,0,.69.2.67.67,0,0,0,.47-.33l.7-1.1.86.54-4,6.33-.86-.54.65-1a.77.77,0,0,0,.14-.63,1,1,0,0,0-.48-.53L231,209.67a1,1,0,0,0-.81-.22,1.12,1.12,0,0,0-.64.55l-.5.8Z" transform="translate(-161.45 -95)"/><path class="cls-1" d="M244.69,185.64l15.14,4.3a2,2,0,0,0,1,.07,1.41,1.41,0,0,0,.68-.5l.37-.46.79.63-4.73,5.94-.79-.63.44-.56a2.61,2.61,0,0,0,.58-1,.58.58,0,0,0-.19-.56,1.48,1.48,0,0,0-.52-.24l-3.12-.89-3.77,4.74.71,1.3a3.71,3.71,0,0,0,.77,1.07,1.42,1.42,0,0,0,1.23.31,2.14,2.14,0,0,0,1.24-.85l.32-.4.8.63-3.83,4.81-.8-.63.22-.28a1.55,1.55,0,0,0,.36-1,3.58,3.58,0,0,0-.44-1.62l-7.22-13.16Zm2.11,3.93,3.21,5.87,3.21-4Z" transform="translate(-161.45 -95)"/><path class="cls-1" d="M250.82,178.44l4.6-4.6.72.72-.43.43a1.55,1.55,0,0,0-.46.65.45.45,0,0,0,.15.43,1.61,1.61,0,0,0,.37.27l9,4.47L260.9,173l-1.34-.67a1.12,1.12,0,0,0-.73-.12,1.79,1.79,0,0,0-.82.52l-.56.55-.72-.72,5.31-5.3.72.72-.49.49a1.94,1.94,0,0,0-.6.85.56.56,0,0,0,.17.55.86.86,0,0,0,.26.18l9,4.49-4-7.84a2.2,2.2,0,0,0-.43-.62,1.39,1.39,0,0,0-1-.48,1.24,1.24,0,0,0-.92.41l-.32.32-.72-.72,3.73-3.72.71.71a2.4,2.4,0,0,0-.69,1.28,2.19,2.19,0,0,0,.28,1.35l6.64,13-.95.94-10.71-5.32L268,184.54l-.94,1-13.84-6.86a1.23,1.23,0,0,0-.74-.16,1.08,1.08,0,0,0-.59.32l-.36.37Z" transform="translate(-161.45 -95)"/><path class="cls-1" d="M287.58,146.47l4.28-2.62,13.26,4.91-3.93-6.44a2.48,2.48,0,0,0-1.47-1.19,2.63,2.63,0,0,0-1.93.3l-.53-.87,5-3.08.53.87a2.22,2.22,0,0,0-.65,3.37l6.58,10.77-1.08.66-15.16-5.7,4.6,7.55a3,3,0,0,0,1.75,1.52,2.29,2.29,0,0,0,1.83-.3l.24-.14.53.86-5.58,3.41-.53-.87.38-.24a2,2,0,0,0,1-1.49,2.88,2.88,0,0,0-.47-2l-5.44-8.92a2.28,2.28,0,0,0-2.1.15l-.61.38Z" transform="translate(-161.45 -95)"/><path class="cls-1" d="M313,131.8a8.33,8.33,0,0,1,4.29-.79,7.87,7.87,0,0,1,4,1.45,8.61,8.61,0,0,1,2.8,3.44,8.31,8.31,0,0,1,.42,6.5,7.91,7.91,0,0,1-4.32,4.7,8,8,0,0,1-8.18-.67,8.75,8.75,0,0,1-2.82-3.49,8.29,8.29,0,0,1-.44-6.5A7.83,7.83,0,0,1,313,131.8Zm.5.92a3.74,3.74,0,0,0-1.74,1.61,4.75,4.75,0,0,0-.39,2.74,13.71,13.71,0,0,0,1.34,4.2,14.38,14.38,0,0,0,2.35,3.78,4.41,4.41,0,0,0,2.31,1.37,3.91,3.91,0,0,0,2.41-.33,3.64,3.64,0,0,0,2.12-2.85c.23-1.34-.24-3.27-1.42-5.77a14.13,14.13,0,0,0-2.3-3.74,4.33,4.33,0,0,0-2.28-1.34A3.88,3.88,0,0,0,313.53,132.72Z" transform="translate(-161.45 -95)"/><path class="cls-1" d="M324.86,127l13.36-4.65,2.36,5.69-.94.32a11.15,11.15,0,0,0-1.87-2.6,3.86,3.86,0,0,0-1.72-1.07,2.83,2.83,0,0,0-1.63.08,1.09,1.09,0,0,0-.62.43.76.76,0,0,0,0,.63l4.11,11.82a.82.82,0,0,0,.41.48.69.69,0,0,0,.58,0l1.74-.61.33,1-8.17,2.84-.33-1,1.65-.58a.85.85,0,0,0,.52-.41.83.83,0,0,0,0-.64l-4.09-11.76a.83.83,0,0,0-.44-.53,1.08,1.08,0,0,0-.76,0q-2.64.92-1.89,6.06l-.91.32Z" transform="translate(-161.45 -95)"/><path class="cls-1" d="M350,118.92l9.29,12.69a1.79,1.79,0,0,0,.75.67,1.28,1.28,0,0,0,.83,0l.58-.14.24,1-7.38,1.77-.24-1,.69-.17a2.41,2.41,0,0,0,1.08-.45.58.58,0,0,0,.2-.56,1.76,1.76,0,0,0-.26-.51l-1.91-2.62-5.89,1.42-.24,1.46a3.9,3.9,0,0,0-.06,1.32,1.45,1.45,0,0,0,.78,1,2.2,2.2,0,0,0,1.5.09l.5-.12.24,1-6,1.44-.24-1,.34-.08a1.63,1.63,0,0,0,.93-.61,3.48,3.48,0,0,0,.64-1.54l2.4-14.82Zm-.76,4.39-1.08,6.6,5-1.21Z" transform="translate(-161.45 -95)"/><path class="cls-1" d="M361.19,116.86l8.37-1.12a8.87,8.87,0,0,1,3.39.09,4.21,4.21,0,0,1,2.11,1.18,3.39,3.39,0,0,1,.89,1.92,3.35,3.35,0,0,1-1.2,3.07,8.06,8.06,0,0,1-3.56,1.58,4.94,4.94,0,0,1,2,.4,3.92,3.92,0,0,1,1.37,1.18,11.3,11.3,0,0,1,1.49,2.66,4.66,4.66,0,0,0,.66,1.26.61.61,0,0,0,.5.21q.72-.09.6-2l1-.13a4.72,4.72,0,0,1-.52,3,2.91,2.91,0,0,1-2.12,1.17,3,3,0,0,1-1.71-.2,2.69,2.69,0,0,1-1.11-1.11,15.45,15.45,0,0,1-.83-2.12,15.38,15.38,0,0,0-1.08-2.62,2.49,2.49,0,0,0-1-.92,2.29,2.29,0,0,0-1.3-.16l-1.18.15.78,5.91a.81.81,0,0,0,.31.57,1.15,1.15,0,0,0,.79.17l1.46-.19.13,1-8.12,1.08-.13-1,1.25-.16a1,1,0,0,0,.71-.36,1,1,0,0,0,.15-.74l-1.6-12.09a1,1,0,0,0-.33-.7.88.88,0,0,0-.68-.15l-1.37.18Zm6.65,6.52,1.35-.18a4.2,4.2,0,0,0,2.72-1.3,3.09,3.09,0,0,0,.47-2.48,3,3,0,0,0-1.07-2.15,4,4,0,0,0-2.76-.35,2.31,2.31,0,0,0-1.25.39c-.16.17-.2.51-.13,1Z" transform="translate(-161.45 -95)"/><path class="cls-1" d="M380.07,114.51l8.05-.25,0,1-1.11,0a1.64,1.64,0,0,0-.82.17.43.43,0,0,0-.21.4,1.2,1.2,0,0,0,.21.61l3.55,5.7,2.22-4.78a2.43,2.43,0,0,0,.26-1.08,1,1,0,0,0-.41-.85,1.73,1.73,0,0,0-1.17-.28h-.5l0-1,6.25-.19,0,1a3.37,3.37,0,0,0-1.72.48,3.17,3.17,0,0,0-1.07,1.35l-3.05,6.52.16,5.09a.8.8,0,0,0,.26.65,1.1,1.1,0,0,0,.78.2l1.67-.05,0,1-8.85.28,0-1,1.66-.05a1.14,1.14,0,0,0,.79-.24.86.86,0,0,0,.21-.68l-.14-4.51-4.59-7.35a2.42,2.42,0,0,0-.91-1,2.31,2.31,0,0,0-1.17-.23h-.35Z" transform="translate(-161.45 -95)"/><path class="cls-1" d="M431.9,119.09l1.26-1.24.76.14-.89,5.52-1-.18a7.66,7.66,0,0,0-1.5-3.93,4.73,4.73,0,0,0-2.86-1.73,3.45,3.45,0,0,0-2.47.35,2.42,2.42,0,0,0-1.23,1.71,2,2,0,0,0,.14,1.24,2.79,2.79,0,0,0,1,1.13,13.8,13.8,0,0,0,2.63,1.29,18.37,18.37,0,0,1,3,1.45,4.85,4.85,0,0,1,1.8,2,4.34,4.34,0,0,1,.25,2.63,4.49,4.49,0,0,1-2.15,3.24,6.81,6.81,0,0,1-4.82.77,7.06,7.06,0,0,1-4.23-2.56l-1.54,1.34-.8-.14,1.07-5.9.94.17c.33,3.54,1.94,5.57,4.81,6.09a4.29,4.29,0,0,0,2.89-.32,2.54,2.54,0,0,0,1.34-1.85,2.27,2.27,0,0,0-.17-1.5,2.94,2.94,0,0,0-1.16-1.17,20.94,20.94,0,0,0-2.34-1.06,15.42,15.42,0,0,1-3.54-1.88,4.18,4.18,0,0,1-1.38-1.82,4.3,4.3,0,0,1-.13-2.28,4.71,4.71,0,0,1,2.1-3.28,5.54,5.54,0,0,1,4.16-.66A6.68,6.68,0,0,1,431.9,119.09Z" transform="translate(-161.45 -95)"/><path class="cls-1" d="M438.74,119.19,452.3,123l-1.22,5.53-.93-.26a9.32,9.32,0,0,0,0-3,3.35,3.35,0,0,0-.93-1.63,4.63,4.63,0,0,0-2-1l-2.13-.6a1.06,1.06,0,0,0-.77,0,.71.71,0,0,0-.37.48l-1.52,5.4.72.21a2.74,2.74,0,0,0,2.15-.17,3.83,3.83,0,0,0,1.46-2.08l1,.27-2,7.24-.94-.27a4.21,4.21,0,0,0-.08-2.76,2.87,2.87,0,0,0-1.89-1.32l-.6-.17-1.62,5.76a.64.64,0,0,0,.07.6,1.74,1.74,0,0,0,.91.5l1.87.53a4.41,4.41,0,0,0,3.49-.35,6.36,6.36,0,0,0,2.56-3.29l.95.27-1.9,5.86-14.14-4,.28-1,1.4.4a1,1,0,0,0,.79,0,.93.93,0,0,0,.43-.58l3.37-12a.66.66,0,0,0-.09-.62,1.61,1.61,0,0,0-.84-.43l-1.23-.35Z" transform="translate(-161.45 -95)"/><path class="cls-1" d="M457.74,124.77l7.85,3.12a9.12,9.12,0,0,1,2.91,1.73,4.12,4.12,0,0,1,1.26,2.06,3.43,3.43,0,0,1-.16,2.12,3.37,3.37,0,0,1-2.55,2.09,8.08,8.08,0,0,1-3.88-.37,4.94,4.94,0,0,1,1.57,1.34,3.94,3.94,0,0,1,.62,1.7,11.09,11.09,0,0,1,0,3.05,4.31,4.31,0,0,0,0,1.42.6.6,0,0,0,.33.43c.45.18,1-.31,1.51-1.46l.9.35a4.7,4.7,0,0,1-1.92,2.38,2.92,2.92,0,0,1-2.42,0,3,3,0,0,1-1.4-1,2.67,2.67,0,0,1-.42-1.51,13.78,13.78,0,0,1,.31-2.26,14.14,14.14,0,0,0,.33-2.81,2.45,2.45,0,0,0-.39-1.27,2.3,2.3,0,0,0-1.06-.79l-1.1-.44-2.21,5.54a.79.79,0,0,0,0,.64,1.19,1.19,0,0,0,.61.54l1.36.54-.37,1-7.61-3,.37-1,1.18.47a1,1,0,0,0,.79,0,1,1,0,0,0,.5-.57l4.51-11.34a1.06,1.06,0,0,0,.06-.77.92.92,0,0,0-.52-.46l-1.29-.51Zm2.61,8.94,1.27.5a4.16,4.16,0,0,0,3,.2,3.09,3.09,0,0,0,1.61-1.94,2.89,2.89,0,0,0,.12-2.39,3.92,3.92,0,0,0-2.23-1.66,2.21,2.21,0,0,0-1.28-.27c-.22.07-.43.35-.62.83Z" transform="translate(-161.45 -95)"/><path class="cls-1" d="M475.24,131.86l7,3.68-.47.9L481,136a2.66,2.66,0,0,0-1.12-.39.52.52,0,0,0-.47.27,3,3,0,0,0-.19.89l-1,10.57,6.84-5.87a4.39,4.39,0,0,0,1-1.23,1.29,1.29,0,0,0,.12-1.1,1.86,1.86,0,0,0-.93-.88l-.64-.34.47-.9,5.54,2.91-.47.9-.42-.22a1.57,1.57,0,0,0-1.15-.13,3.84,3.84,0,0,0-1.5.89L476,150.9l-1.16-.6,1.4-15.41a2,2,0,0,0-.15-1.18,2.47,2.47,0,0,0-1-.79l-.3-.16Z" transform="translate(-161.45 -95)"/><path class="cls-1" d="M492.86,141.43l7,4.43-.55.86-1.26-.8a1.08,1.08,0,0,0-.7-.21.7.7,0,0,0-.48.36l-6.7,10.58a.8.8,0,0,0-.14.65,1.28,1.28,0,0,0,.6.66l1.12.72-.54.86-7-4.43.55-.86,1.07.67a1.44,1.44,0,0,0,.9.31.78.78,0,0,0,.57-.4l6.62-10.46a.89.89,0,0,0,.15-.71,1.17,1.17,0,0,0-.53-.6l-1.22-.77Z" transform="translate(-161.45 -95)"/><path class="cls-1" d="M512.62,156.63l1.57-.83.65.49-3.69,5.34-.8-.6a7.87,7.87,0,0,0,1.09-4.39,4,4,0,0,0-1.56-2.87,3.57,3.57,0,0,0-3.48-.44c-1.35.45-2.77,1.68-4.29,3.69s-2.43,4-2.5,5.52a3.56,3.56,0,0,0,1.58,3.1,4.56,4.56,0,0,0,3.69.88,6.45,6.45,0,0,0,3.1-1.75l.79.59a6.85,6.85,0,0,1-4.32,2.23,6.19,6.19,0,0,1-4.43-1.32,7.44,7.44,0,0,1-3-5.23,8.3,8.3,0,0,1,1.82-6.15,8.48,8.48,0,0,1,6-3.63,7.35,7.35,0,0,1,5.37,1.47,6,6,0,0,1,1.51,1.6A7.84,7.84,0,0,1,512.62,156.63Z" transform="translate(-161.45 -95)"/><path class="cls-1" d="M518.47,159.75l10.34,9.57-3.61,4.36-.71-.65a9.24,9.24,0,0,0,1.34-2.69,3.32,3.32,0,0,0-.09-1.88,4.49,4.49,0,0,0-1.29-1.78l-1.62-1.5a1.06,1.06,0,0,0-.68-.36.69.69,0,0,0-.55.26l-3.81,4.12.55.51a2.67,2.67,0,0,0,2,.82,3.8,3.8,0,0,0,2.25-1.18l.72.67-5.11,5.52-.72-.67a4.1,4.1,0,0,0,1.18-2.49,2.83,2.83,0,0,0-1.07-2l-.46-.42-4.06,4.39a.62.62,0,0,0-.21.56,1.7,1.7,0,0,0,.57.86l1.43,1.33a4.44,4.44,0,0,0,3.27,1.28,6.38,6.38,0,0,0,3.78-1.77l.72.67-4.36,4.36-10.78-10,.69-.74,1.07,1a1,1,0,0,0,.72.33.94.94,0,0,0,.65-.33l8.45-9.13a.67.67,0,0,0,.21-.6,1.73,1.73,0,0,0-.55-.77l-.94-.86Z" transform="translate(-161.45 -95)"/><path class="cls-1" d="M538.29,181.41l1.76-.21.52.58-4.1,3.8-.66-.73a7.59,7.59,0,0,0,1.23-4,4.74,4.74,0,0,0-1.18-3.12,3.49,3.49,0,0,0-2.17-1.23,2.39,2.39,0,0,0-2,.58,2.11,2.11,0,0,0-.66,1.07,2.87,2.87,0,0,0,.08,1.49,13.69,13.69,0,0,0,1.28,2.63,19.86,19.86,0,0,1,1.51,3,5,5,0,0,1,.17,2.71,4.37,4.37,0,0,1-1.42,2.23,4.44,4.44,0,0,1-3.69,1.23,6.74,6.74,0,0,1-4.27-2.35,7.08,7.08,0,0,1-1.77-4.62l-2,.11-.54-.6,4.47-4,.64.72q-2.86,4.48.05,7.75A4.28,4.28,0,0,0,528,190a2.59,2.59,0,0,0,2.2-.64,2.34,2.34,0,0,0,.79-1.29,3,3,0,0,0-.2-1.64,21.64,21.64,0,0,0-1.19-2.27,15.09,15.09,0,0,1-1.64-3.66,4.14,4.14,0,0,1,0-2.27,4.22,4.22,0,0,1,1.3-1.89,4.7,4.7,0,0,1,3.67-1.29,5.54,5.54,0,0,1,3.69,2A6.7,6.7,0,0,1,538.29,181.41Z" transform="translate(-161.45 -95)"/><path class="cls-1" d="M299.12,229.3q-23.46,23.14-23.46,34.1,0,5.19,5.55,7.83a24.12,24.12,0,0,0,10.11,1.94q17.54,0,34.3-10.43t16.77-20.2q0-7.56-14.63-11.3a83.83,83.83,0,0,0-20.94-2.56A45.07,45.07,0,0,0,299.12,229.3Z" transform="translate(-161.45 -95)"/><path class="cls-1" d="M371.08,197.2q0-9.13-24.88-9.13l-9.42.14-32.87,35.41a258.86,258.86,0,0,0,38.4-7.68Q371.08,207.72,371.08,197.2Z" transform="translate(-161.45 -95)"/><path class="cls-1" d="M616.09,185.2c-6.16-7-15.43-11.07-26.1-11.33l-1.47,0a70.68,70.68,0,0,0-28,6.08A207.83,207.83,0,0,0,393,95c-114.69,0-208,93.31-208,208q0,3.24.11,6.47C173,314.2,161.45,325.7,161.45,345a35,35,0,0,0,10,25.1c7.54,7.8,18.52,13.55,31.16,16.62C234.86,459.84,308,511,393,511c114.69,0,208-93.31,208-208a206.67,206.67,0,0,0-25.29-99.32,42.53,42.53,0,0,1,12.47-2.11c.59,0,1.18,0,1.75.05,13.32.8,15.92,5.43,17.41,10.1a14.15,14.15,0,0,1,.4,2.37c.77,6.92,5.28,7.67,7.18,7.67,6.85,0,8-7,8.65-10.8v-.12l0-.14v-.11C624.62,200.92,622,191.91,616.09,185.2ZM393,101A201.84,201.84,0,0,1,555,182.5c-10.15,5.12-20.74,12.56-32.08,22.47A164,164,0,0,0,241.4,367.76a47.82,47.82,0,0,1-14.9,2.31c-10.87,0-18.81-3.74-21.59-7.21a3.7,3.7,0,0,1-.69-3.2c.14-.67,1.18-3.87,8.42-10.1l0,0,0,0c5.72-5.09,11-11.07,11-20.25,0-13.78-9.9-22.34-25.84-22.34a33.27,33.27,0,0,0-6.86.76Q191,305.34,191,303C191,191.61,281.57,101,393,101Zm-18.34,99q0,10.6-16.22,17.39-7,3-25.36,7.14a100.55,100.55,0,0,1-11.37,2.15,47.93,47.93,0,0,1,7.83,1.52q18,4.51,18,16.91,0,12.75-18.19,23.91t-35.65,11.16q-8.94,0-14.48-3.47-6.58-4.15-6.59-12.6a25.27,25.27,0,0,1,.72-6.09l-8.53,10.28q-6.94,8.2-8.46,8.2a4.19,4.19,0,0,1-2.49-.93,2.71,2.71,0,0,1-1.26-2.19q0-3.81,16-21.17,17.81-19.35,19.74-22.83l-1.16-3c0-2.17,2.18-3,6.56-2.56L327.26,189q-25.49,2.91-38.37,9.29-3.47,1.72-4.71,1.73-3.18,0-3.18-2.84,0-4.58,17.21-9.57a162.24,162.24,0,0,1,36.54-6c2.78-2.5,4.72-3.75,5.84-3.75a2.06,2.06,0,0,1,1.94,1.26,3.37,3.37,0,0,1,.28,2.49Q374.61,181.63,374.62,200ZM595,303c0,111.39-90.62,202-202,202-81,0-151-47.9-183.15-116.84a93.44,93.44,0,0,0,14.33,1.11h1c.39,0,.77,0,1.16,0a66.92,66.92,0,0,0,22.83-5.38A164,164,0,0,0,536.83,226.26l.48-.38q18.24-14.22,32.65-20.13A200.65,200.65,0,0,1,595,303ZM434.31,414.33q13.92,0,29.84-5.55,16.28-5.68,26.66-14.49,10.11-8.61,10.11-12.91t-13.65-5.82q-22.59-2.64-25.29-3.26-13.67-3.33-13.66-11.79,0-10.74,16-20.46,13.1-8,33.33-13.45,17.74-4.78,28.42-4.79,13.65,0,13.65,8.46,0,7.28-12.68,17.11-12.27,9.5-20,9.5-6.24,0-6.24-4.3,0-3.6,7.14-8.45,6.8-4.58,10.6-4.58,1.32,0,1.32.84l-7.14,3.88q-7.14,3.89-7.41,5.68a1.35,1.35,0,0,0,1.18.48q5,0,16.46-6.65,12.15-7.06,12.15-11.64,0-4-9.71-4-11.08,0-31.28,6.39a190.23,190.23,0,0,0-23.85,9.16q-17.76,8.32-17.76,15.06,0,4.31,11.23,6.39L486,368q13,1.95,15.87,5.69a14.21,14.21,0,0,1,3.12,8.46q0,7.42-10.95,17.41a80.66,80.66,0,0,1-27.72,16.31,94.17,94.17,0,0,1-31.67,5.48q-22,0-22-13.24,0-7.9,12.4-14.41,10.81-5.76,19.68-5.76c1.89,0,2.84.58,2.84,1.74,0,.78-1,1.31-2.9,1.59a63.68,63.68,0,0,0-16.32,4.85Q417.22,401,417.21,407,417.21,414.33,434.31,414.33ZM619.6,210.16l0,.14c-.58,3.5-1.24,7.46-4.7,7.46-2.74,0-3.06-2.88-3.2-4.11a17.93,17.93,0,0,0-.55-3.07c-1.94-6.16-5.85-12-21-13-.65,0-1.31-.05-2-.05a47.17,47.17,0,0,0-14.47,2.52q-2.77.9-5.69,2.12-14.7,6.15-33.13,20.52c-1.05.81-2.1,1.65-3.17,2.51q-3.75,3-7.67,6.37a157.38,157.38,0,0,1,16.19,43l-.3.06a156.69,156.69,0,0,0-16.73-42.34Q506.5,246.7,487,267.09c-41,42.75-65.15,77.93-95.72,122.48l-2,2.9c-4.59,6.89-10.93,9.8-17.84,8.18-6.07-1.39-10.16-3.74-12.12-7a9.73,9.73,0,0,1-.9-7.72l0-.1c3.77-11.72,9.72-43.87,10.62-71.34.57-14.77,1.58-33.86,4-48.82-17.28,27-45.63,57.49-76.67,82.23q-3.7,3-7.45,5.79-7.51,5.64-15.19,10.75c-4.54,3.27-8.86,6.26-13.12,8.91a154.38,154.38,0,0,0,24.59,34.81A149.53,149.53,0,0,0,353.62,450a147.26,147.26,0,0,0,40,5.51c1.68,0,3.37-.08,5.05-.1l2.53-.08c.84,0,1.68-.06,2.52-.14,3.36-.29,6.72-.5,10.05-1a148.19,148.19,0,0,0,19.81-3.89c26.12-6.85,50.1-21.12,69.49-40.17l.22.21a144.6,144.6,0,0,1-109.69,48.15,150.94,150.94,0,0,1-109.44-49.28,155.54,155.54,0,0,1-24.24-35.38,92.12,92.12,0,0,1-12.62,6.57,63.06,63.06,0,0,1-21.15,4.91l-.94,0h-1a87.83,87.83,0,0,1-16.32-1.51q-3.75-.7-7.24-1.71c-11.17-3.2-20.27-8.51-26.28-14.73A31.11,31.11,0,0,1,165.45,345c0-16.62,9.47-26.77,19.78-31.29a33.52,33.52,0,0,1,5.92-2,29.69,29.69,0,0,1,6.72-.81c13.67,0,21.84,6.86,21.84,18.34,0,7.18-3.87,12.09-9.68,17.26-7.3,6.29-9.33,10.23-9.75,12.43a7.76,7.76,0,0,0,1.51,6.41c3.46,4.32,12.23,8.71,24.71,8.71A51.63,51.63,0,0,0,243,371.44l.67-.23A66.2,66.2,0,0,0,256,365.35a154.46,154.46,0,0,1-9-28.15l.29-.07A153.66,153.66,0,0,0,256.62,365c7.17-4.33,14.37-10,22.68-16.34,2.46-1.89,5-3.84,7.69-5.84,1.77-1.37,3.51-2.76,5.24-4.15,37.84-30.38,67.21-65.16,87.38-103.53a70,70,0,0,1,15.8-20,41.77,41.77,0,0,1,25.78-9.55c5.29,0,9.09,1.65,10.44,4.52a5.39,5.39,0,0,1-.85,5.76c-4.41,6.2-7.74,14.55-9.37,23.53l0,.11c-3.16,14-4.94,34.44-6.66,54.23-2,25.53-4.18,43.06-7.06,55.59,17.24-24.29,46.55-64.57,68.89-90.1,12.58-14.53,25.09-28.55,37.62-40.74-1.46-2-2.95-4-4.51-5.88a149.28,149.28,0,0,0-121.2-56.24,156.23,156.23,0,0,0-66.78,16.56l-.14-.26a138.46,138.46,0,0,1,15.61-7.91,144,144,0,0,1,51.22-11.39A145.87,145.87,0,0,1,456.64,168a153.76,153.76,0,0,1,54.21,43.72c1.49,1.91,2.93,3.87,4.33,5.85,2.38-2.3,4.76-4.54,7.14-6.69,1-.91,2-1.8,3-2.68,10.64-9.32,21.32-17,32.09-22.36q2.77-1.37,5.55-2.52a66.49,66.49,0,0,1,25.56-5.44l1.37,0c9.54.23,17.78,3.78,23.19,10C618.21,193.69,620.52,201.62,619.6,210.16Z" transform="translate(-161.45 -95)"/><circle class="cls-1" cx="225.37" cy="391.11" r="4.24"/><circle class="cls-1" cx="239.45" cy="390.96" r="4.24"/><circle class="cls-1" cx="211.4" cy="390.23" r="4.24"/><circle class="cls-1" cx="253.38" cy="389.76" r="4.24"/><circle class="cls-1" cx="197.54" cy="388.28" r="4.24"/><circle class="cls-1" cx="267.19" cy="387.53" r="4.24"/><circle class="cls-1" cx="183.89" cy="385.21" r="4.24"/><circle class="cls-1" cx="280.76" cy="384.28" r="4.24"/><circle class="cls-1" cx="170.52" cy="381.03" r="4.24"/><circle class="cls-1" cx="294.06" cy="380.03" r="4.24"/><circle class="cls-1" cx="157.54" cy="375.78" r="4.24"/><circle class="cls-1" cx="307.02" cy="374.81" r="4.24"/><circle class="cls-1" cx="145.03" cy="369.5" r="4.24"/><circle class="cls-1" cx="319.55" cy="368.64" r="4.24"/><circle class="cls-1" cx="133.06" cy="362.24" r="4.24"/><circle class="cls-1" cx="331.6" cy="361.57" r="4.24"/><circle class="cls-1" cx="121.71" cy="354.07" r="4.24"/><circle class="cls-1" cx="343.1" cy="353.61" r="4.24"/><circle class="cls-1" cx="111.01" cy="345.05" r="4.24"/><circle class="cls-1" cx="353.97" cy="344.82" r="4.24"/><circle class="cls-1" cx="101.04" cy="335.24" r="4.24"/><circle class="cls-1" cx="364.15" cy="335.24" r="4.24"/><circle class="cls-1" cx="373.57" cy="324.9" r="4.24"/><circle class="cls-1" cx="91.83" cy="324.72" r="4.24"/><circle class="cls-1" cx="382.17" cy="313.86" r="4.24"/><circle class="cls-1" cx="83.42" cy="313.54" r="4.24"/><circle class="cls-1" cx="389.89" cy="302.18" r="4.24"/><circle class="cls-1" cx="75.86" cy="301.78" r="4.24"/><circle class="cls-1" cx="396.65" cy="289.92" r="4.24"/><circle class="cls-1" cx="402.42" cy="277.14" r="4.24"/><circle class="cls-1" cx="407.12" cy="263.94" r="4.24"/><circle class="cls-1" cx="410.73" cy="250.43" r="4.24"/><circle class="cls-1" cx="413.24" cy="236.66" r="4.24"/><circle class="cls-1" cx="414.63" cy="222.74" r="4.24"/><circle class="cls-1" cx="414.96" cy="208.65" r="4.24"/><circle class="cls-1" cx="414.25" cy="194.67" r="4.24"/><circle class="cls-1" cx="412.54" cy="180.78" r="4.24"/><circle class="cls-1" cx="409.87" cy="167.04" r="4.24"/><circle class="cls-1" cx="406.25" cy="153.52" r="4.24"/><circle class="cls-1" cx="401.68" cy="140.29" r="4.24"/><circle class="cls-1" cx="396.04" cy="127.44" r="4.24"/></svg>